<svg preserveAspectRatio="none" width="100%" height="100%" overflow="visible" style="display: block;" viewBox="0 0 186 188" fill="none" xmlns="http://www.w3.org/2000/svg">
<g id="image 57 [Vectorized]" clip-path="url(#clip0_0_11)">
<path id="Vector" d="M1.24336 0.561956C5.59186 0.702956 10.7156 0.562957 15.1186 0.556207L41.3466 0.538957L135.576 0.534707C151.689 0.535707 169.895 0.132706 185.826 0.643956C186.304 6.19596 185.966 17.706 185.963 23.6082L185.965 67.7652L185.961 144.127C185.965 158.364 186.165 173.283 185.897 187.47C184.713 187.462 183.5 187.484 182.313 187.491L57.6911 187.507C38.6254 187.508 19.0824 187.272 0.0683594 187.525C0.417109 184.168 0.126859 174.763 0.113609 171.041L0.116859 139.567L0.0871086 31.6147C0.0921086 22.9405 0.0843579 10.5257 0.178608 1.48346C0.183358 1.02596 0.811859 0.796206 1.24336 0.561956ZM146.091 102.498C147.761 102.507 148.824 102.508 150.241 101.602C149.337 101.057 147.56 101.322 146.479 101.406L147.514 102.001C146.992 102.25 146.64 102.338 146.091 102.498Z" fill="#27301C"/>
<path id="Vector_2" d="M0.987847 1.31925C7.69385 1.12775 15.1453 1.289 21.8951 1.29025L60.4476 1.275L184.639 1.26425C184.396 10.597 184.548 20.5368 184.55 29.9033L184.562 79.7747C184.565 115.074 184.17 151.019 184.596 186.26L1.02285 186.294C0.631597 166.47 1.01085 145.224 1.0086 125.314L0.987847 1.31925ZM146.089 102.498C147.76 102.508 148.823 102.509 150.24 101.602C149.336 101.057 147.559 101.323 146.478 101.406L147.512 102.001C146.991 102.251 146.639 102.338 146.089 102.498Z" fill="#FAFAF5"/>
<path id="Vector_3" d="M136.612 4.5332C146.898 4.45895 157.184 4.43795 167.469 4.47045C170.029 4.4707 179.717 4.3152 181.475 4.5952C181.479 14.6419 181.583 24.8727 181.446 34.9052C181.548 37.8062 181.522 40.2032 181.44 43.0977C181.713 52.7192 181.485 63.2377 181.485 72.9514L181.495 138.686C181.494 149.717 181.245 161.777 181.51 172.732C181.507 173.536 181.529 174.478 181.494 175.268L181.479 183.48L4.05941 183.472L4.02967 152.147C4.05017 146.889 3.92892 140.307 4.23392 135.171L4.19116 128.725C3.86941 124.176 4.03991 117.597 4.03441 112.882L4.03392 84.3559L4.06467 4.4822L91.8549 4.4902C106.502 4.48795 122.016 4.23445 136.612 4.5332ZM146.091 102.498C147.761 102.507 148.824 102.509 150.241 101.602C149.337 101.057 147.56 101.322 146.479 101.406L147.514 102.001C146.992 102.25 146.64 102.338 146.091 102.498Z" fill="#27301C"/>
<path id="Vector_4" d="M7.08695 76.6855C19.1545 82.1635 14.2827 91.067 15.6762 92.6455C17.15 92.4948 18.4227 90.7735 19.5102 89.6253C19.5385 90.763 19.6775 93.7201 19.4302 94.7248C17.4837 102.641 13.5875 110.043 11.5722 117.974C9.9947 124.182 10.123 130.888 9.97695 137.272C9.9252 139.542 10.4265 155.719 14.707 153.848C15.2025 152.953 12.2872 145.626 12.146 143.651C11.7272 137.795 11.024 129.776 13.507 124.341C14.2777 122.654 18.2705 117.591 20.1815 117.817C21.8977 119.844 19.4647 123.982 18.7192 126.022C20.508 124.561 24.753 120.811 26.94 123.037C27.0985 124.25 27.1735 126.191 26.7087 127.341C20.3937 129.431 20.7867 129.841 19.3197 136.21C17.029 146.157 30.4962 157.79 19.4612 164.184C19.499 167.95 20.385 169.493 23.22 172.273C24.2922 173.335 25.479 174.274 26.7582 175.075C28.6582 176.242 32.8517 177.572 33.2122 179.663C32.9512 180.546 33.1337 180.216 32.4162 180.907C30.8605 181.366 28.935 180.202 27.541 179.462C22.45 176.757 16.6865 172.554 15.0037 166.685C14.8285 166.055 14.674 165.42 14.5407 164.779C11.2575 163.346 9.8617 161.508 8.5817 158.125C6.05995 151.459 4.61995 140.953 4.7432 133.799L4.2322 135.171L4.18945 128.725L4.9402 129.59C5.92195 126.121 5.0907 123.22 5.7297 119.66C7.2342 111.277 9.7337 100.852 10.355 92.5065C10.5965 89.2623 8.0572 79.6518 7.08695 76.6855Z" fill="#FAFAF5"/>
<path id="Vector_5" d="M4.18945 128.725L4.9402 129.59C4.7632 131.202 4.74045 132.184 4.7432 133.799L4.2322 135.171L4.18945 128.725Z" fill="#27301C"/>
<path id="Vector_6" d="M14.0413 125.888L14.4273 126.376C14.2568 128.999 13.7518 136.483 13.4176 138.805C12.3708 137.309 12.7553 127.897 14.0413 125.888Z" fill="#27301C"/>
<path id="Vector_7" d="M16.1279 155.406C16.4896 155.586 16.3724 155.535 16.6521 155.876C16.6416 157.296 14.8656 158.36 13.6534 158.712C13.1664 158.319 13.1059 158.305 12.8906 157.74C13.6199 156.855 14.6009 157.46 16.1279 155.406Z" fill="#27301C"/>
<path id="Vector_8" d="M15.3066 129.303C16.1211 129.653 15.8481 129.426 16.3409 130.16C16.5191 131.335 15.9986 132.747 15.6686 133.926L15.4066 134.122L15.0864 133.774C14.9166 132.312 15.1514 130.775 15.3066 129.303Z" fill="#27301C"/>
<path id="Vector_9" d="M166.468 16.9023C172.821 20.6526 170.333 19.0306 173.907 24.8446C174.093 24.3386 174.096 24.3348 174.408 23.8943C175.973 24.2786 176.98 27.3076 176.753 28.9778C176.757 29.6983 176.721 30.1313 176.952 30.8291L177.696 30.9593L178.234 30.9566C178.61 31.6926 178.552 34.7991 178.584 35.7713C178.893 45.0548 172.995 52.1136 166.165 57.6146C165.548 58.1113 164.958 58.8278 164.504 59.4856C170.466 56.5813 175.534 51.0138 178.205 44.7828C178.909 43.1426 179.489 37.8063 180.125 37.1261L180.535 37.0438C181.235 36.4526 181.059 32.9931 181.075 31.9213C181.098 33.0493 181.091 33.5971 181.385 34.6868L181.445 34.9053C181.547 37.8063 181.521 40.2033 181.439 43.0978L181.385 43.3058C181.139 44.2721 181.162 44.5383 181.222 45.5296L180.99 45.9423L180.428 46.0116C181.549 48.2536 177.149 54.5798 176.203 57.2546L176.148 57.4113C177.213 56.0078 178.357 54.3946 179.614 53.1931C176.831 61.9786 175.441 60.2656 171.521 66.5098C171.532 67.5516 171.617 68.7983 171.323 69.7758C169.697 71.2756 167.066 68.2413 166.552 66.5738C165.501 66.3633 162.116 69.4776 160.412 69.8383C152.637 71.4848 151.377 70.3081 146.411 77.1601C143.348 73.4921 142.917 71.1983 146.634 67.4233C142.195 64.8248 138.922 60.9031 138.631 55.5316C138.612 54.7043 138.747 54.4003 138.993 53.6346C139.913 54.3913 140.861 55.0658 142.117 55.0371L142.232 55.4903C143.068 55.9261 144.482 55.7308 145.551 55.7473C151.797 54.2118 155.025 47.2608 161.969 47.5523C162.867 47.5901 163.762 47.6593 164.658 47.7293C160.921 44.6383 160.223 43.2726 162.261 38.7626C163.303 39.4216 164.742 40.1388 165.854 40.7333C173.753 38.3956 175.908 33.2848 174.18 25.5656C174.051 27.4008 173.765 29.5141 173.559 31.3641C171.234 25.4131 168.795 23.3428 166.468 16.9023Z" fill="#FAFAF5"/>
<path id="Vector_10" d="M180.536 37.0434C181.235 36.4521 181.06 32.9926 181.076 31.9209C181.099 33.0489 181.092 33.5967 181.386 34.6864L181.446 34.9049C181.548 37.8059 181.522 40.2029 181.44 43.0974L181.386 43.3054C181.139 44.2716 181.163 44.5379 181.223 45.5292L180.991 45.9419L180.428 46.0111C178.887 48.4131 179.19 48.9519 176.922 51.4969C178.02 46.8322 181.303 42.5909 180.536 37.0434Z" fill="#27301C"/>
<path id="Vector_11" d="M138.993 53.6348C139.913 54.3915 140.861 55.066 142.117 55.0373L142.232 55.4905C143.068 55.9263 144.482 55.731 145.551 55.7475C143.813 56.3118 140.417 56.074 138.631 55.5318C138.612 54.7045 138.747 54.4005 138.993 53.6348Z" fill="#27301C"/>
<path id="Vector_12" d="M176.752 28.9775C176.756 29.698 176.721 30.131 176.951 30.8288L177.695 30.959C177.423 32.2688 177.299 33.5398 176.551 34.6158L176.295 34.482C176.121 32.7893 176.487 30.6823 176.752 28.9775Z" fill="#27301C"/>
<path id="Vector_13" d="M158.127 49.4697C158.517 49.4785 158.324 49.4515 158.72 49.753C158.307 50.769 155.849 51.268 154.152 53.3657L153.71 53.4527L153.674 53.0187C154.695 51.4675 156.53 50.3407 158.127 49.4697Z" fill="#27301C"/>
<path id="Vector_14" d="M141.961 60.0245C143.029 59.8937 147.025 61.2512 148.195 61.6825C146.179 62.0087 143.478 61.4325 141.961 60.0245Z" fill="#27301C"/>
<path id="Vector_15" d="M172.273 5.4707L175.837 5.53495C178.607 7.2282 178.631 8.47195 178.489 11.4755C177.607 12.8137 177.148 13.4972 176.077 14.7072L178.696 17.385C175.772 17.8617 174.902 18.1415 171.947 17.79C169.489 17.4977 160.834 12.5652 158.971 14.0852C160.405 17.7565 169.216 15.0962 167.904 30.9955C167.109 30.409 166.227 29.725 165.419 29.1762C164.656 30.2785 162.788 33.1985 161.954 33.965C159.739 34.0982 158.574 34.1677 156.384 33.9567C155.121 32.8297 154.169 32.0227 153.092 30.709C152.852 29.316 152.292 25.3782 154.206 24.9045C154.619 26.1492 154.893 28.6997 156.213 29.273C160.193 30.9755 162.776 25.796 161.342 22.5705C159.599 18.6505 155.225 15.0575 150.885 15.022C144.308 14.9682 137.879 15.1935 131.62 17.359C131.149 17.522 130.86 17.4152 130.492 17.1507C130.784 15.9557 133.491 14.5682 134.568 13.8535C141.179 9.46945 148.377 9.6957 155.962 10.111C161.058 10.39 172.155 16.6232 174.541 9.6847C175.083 8.1087 171.96 6.7822 171.883 5.9992L172.273 5.4707Z" fill="#FAFAF5"/>
<path id="Vector_16" d="M138.993 53.6342C138.878 53.0067 138.907 52.2027 138.361 51.9309C134.613 50.0679 135.198 47.1464 136.524 43.7857C137.647 40.9382 144.391 38.9509 144.528 37.9292C143.312 38.0734 142.099 38.2352 140.888 38.4147L140.689 38.2124C144.085 35.3619 146.07 33.5792 149.207 30.4609C149.355 31.7487 149.514 34.6442 150.58 35.3244C153.242 37.0232 156.055 38.2949 159.178 38.3179C158.532 39.7812 157.873 41.2392 157.203 42.6914C150.983 45.4767 153.516 44.2459 149.623 48.9549C148.992 49.1309 147.105 49.7527 146.597 49.6204C146.846 47.8999 147.821 46.7697 146.448 44.9324C144.313 42.0749 139.552 43.5312 139.492 47.0862C139.203 50.8879 140.765 51.9117 142.116 55.0367C140.861 55.0654 139.913 54.3909 138.993 53.6342Z" fill="#FAFAF5"/>
<path id="Vector_17" d="M174.518 164.283C175.883 164.949 179.413 166.358 179.75 167.778C179.235 168.273 179.027 168.423 178.764 169.098C178.797 169.588 180.337 172.079 180.788 172.996L181.509 172.732C181.506 173.535 181.528 174.477 181.493 175.267L180.831 175.03C179.665 177.801 177.703 178.693 175 179.616C172.962 179.018 169.305 177.317 167.277 177.567C166.059 177.718 165.693 179.464 165.119 180.31L164.663 180.097C164.219 179.251 164.348 177.004 164.932 176.285C167.028 173.707 171.346 176.421 173.956 176.531C176.175 176.713 177.54 174.126 176.675 172.256C174.817 168.241 169.906 169.265 166.794 170.829C163.275 172.597 159.725 173.974 156.037 175C160.27 170.82 168.99 166.544 174.518 164.283Z" fill="#FAFAF5"/>
<path id="Vector_18" d="M180.789 172.997L181.51 172.732C181.507 173.536 181.529 174.478 181.494 175.268L180.832 175.03C181.002 174.206 180.903 173.811 180.789 172.997Z" fill="#27301C"/>
<path id="Vector_19" d="M136.611 4.53332C146.897 4.45907 157.183 4.43807 167.468 4.47057C170.028 4.47082 179.716 4.31532 181.474 4.59532C179.665 4.73532 176.827 4.08082 175.836 5.53457L172.272 5.47032L172.26 4.97332C171.346 4.70782 166.678 4.76757 165.499 4.76257L146.882 4.78157C144.609 4.78657 138.652 4.92507 136.611 4.53332Z" fill="#27301C"/>
<path id="Vector_20" d="M74.0507 21.6409C73.6082 21.1404 73.483 20.9636 73.3457 20.3076C73.503 19.8669 73.6162 19.3966 74.179 19.2709C78.1272 18.3876 82.5397 19.3149 86.5637 19.4024C93.1682 19.5519 99.8089 19.5274 106.414 19.4186C108.863 19.3784 111.742 18.3426 114.221 18.4311C115.612 18.4806 118.588 18.6784 119.231 20.0571C119.664 23.9754 110.616 27.1216 109.694 30.5371C107.834 37.4276 108.511 46.8381 108.518 53.9846L108.526 111.659L108.526 128.408C108.526 132.479 108.644 137.783 108.067 141.738C107.38 146.447 103.68 159.071 99.9557 161.53L99.3722 161.581C98.9517 161.153 98.915 160.611 99.0865 160.02L98.6519 159.56C97.7562 159.708 96.568 157.533 93.485 156.746C92.4005 155.243 91.109 153.501 91.1032 151.587C91.0925 147.971 91.8955 144.275 92.378 140.712C92.5667 139.319 92.4895 136.968 92.4772 135.524L92.0202 53.8836C92.0182 47.9026 92.8407 41.6521 92.6465 35.6134C92.5075 31.2976 90.3907 27.2431 86.6372 25.0141L86.2907 25.4999C86.855 26.0561 87.0365 26.0306 87.0847 26.6769C86.4897 26.8544 86.4635 26.8356 85.8445 26.6789C84.9447 26.7679 83.925 26.6314 83.421 27.4856C81.416 27.0986 80.41 26.9254 78.3305 27.2336L78.3992 26.8739C79.192 26.7674 79.362 26.7651 80.045 26.3059C77.003 25.3814 75.835 25.1799 73.6945 22.8496L73.47 22.6834L73.4222 22.2614L74.0507 21.6409Z" fill="#FAFAF5"/>
<path id="Vector_21" d="M98.6523 159.56C99.0846 158.501 99.6509 157.357 100.225 156.366C106.677 145.224 106.22 132.029 106.249 119.601C106.28 108.539 106.096 97.4766 105.696 86.4216C105.405 76.5121 105.436 66.5121 105.325 56.5864C105.226 47.7481 104.401 38.5841 106.667 29.9891C107.352 27.3916 114.851 20.2111 117 20.4379L117.178 20.6841C115.974 22.8061 109.465 24.4866 106.831 31.4726C105.975 33.7424 106.491 46.8884 106.493 50.1684C106.466 69.0191 106.589 87.8699 106.861 106.719L106.928 124.654C106.942 136.504 106.459 150.004 99.0869 160.02L98.6523 159.56Z" fill="#27301C"/>
<path id="Vector_22" d="M74.0504 21.6406C77.0136 22.1984 79.8174 22.6309 82.6719 23.6354C80.4849 23.6266 74.5846 22.7566 73.6941 22.8494L73.4696 22.6831L73.4219 22.2611L74.0504 21.6406Z" fill="#27301C"/>
<path id="Vector_23" d="M80.0446 26.3057C81.9651 26.4037 83.9356 26.4802 85.8441 26.6787C84.9443 26.7677 83.9246 26.6312 83.4206 27.4854C81.4156 27.0984 80.4096 26.9252 78.3301 27.2334L78.3988 26.8737C79.1916 26.7672 79.3616 26.7649 80.0446 26.3057Z" fill="#27301C"/>
<path id="Vector_24" d="M86.291 25.4996C85.3492 25.0669 83.3717 24.2714 82.8027 23.5064C83.8102 23.2251 85.7312 24.4806 86.6375 25.0139L86.291 25.4996Z" fill="#27301C"/>
<path id="Vector_25" d="M43.3829 17.9728C43.5619 11.9748 46.5639 7.28004 53.4246 7.42004C54.9559 7.45129 56.5544 8.31705 57.8814 9.0663C59.2686 11.061 60.4721 14.6405 58.2986 16.524L57.6786 16.5405C56.8591 15.679 56.9369 14.8988 56.7821 13.6345C53.4479 10.9955 52.8816 10.7225 49.5001 13.3893L49.5286 17.526C50.7481 19.432 54.2414 25.6893 54.8619 27.699C55.8229 29.2088 55.5259 30.8288 55.4834 32.6C55.8079 40.203 47.8486 50.2838 41.1521 53.1375C39.9791 53.6373 37.5006 54.9313 36.2654 54.8783C36.0254 54.5008 35.9029 54.3223 35.6251 53.9735C33.7484 54.2015 30.6111 54.5315 28.6004 54.6188C28.4904 54.6235 27.9119 55.5018 27.6019 55.4753C23.7309 55.1433 22.4369 53.4675 18.2194 55.1948C16.2844 55.9873 14.3474 57.2895 13.4584 59.361C12.4824 61.6353 13.2184 62.959 14.0999 65.071C16.3771 65.9438 17.4886 66.001 19.8566 66.1445C17.9014 68.628 17.6296 69.1708 14.7104 70.1398C13.0539 69.5463 11.0654 68.6313 9.44539 67.9215C8.81189 66.701 8.03689 65.4668 7.32464 64.2835L7.47014 60.2935C8.90289 58.1048 10.0669 57.145 12.0259 55.4805C9.50289 54.8 9.07989 54.6908 6.80664 53.5358C11.3914 39.8363 26.6181 52.134 31.6824 49.0088C32.2114 48.2368 32.1091 48.5953 32.0669 47.6598C30.4799 45.1545 24.0264 47.9753 23.3866 46.8603C22.0026 44.4488 21.3276 43.8668 17.5901 42.4715L17.3176 42.6528C17.5281 43.2098 17.7214 43.7733 17.8971 44.3423L17.5154 44.408C16.7079 43.811 15.8584 43.0365 15.0919 42.371C14.1829 40.0223 14.2076 39.209 14.2721 36.7698C15.7446 36.8963 17.4244 37.3445 18.8899 37.6803C19.6469 36.5733 18.6159 34.9595 18.1536 33.5728C16.9681 30.015 19.8166 27.0333 19.4004 23.854C19.2529 22.9375 18.8509 21.5685 19.2574 20.8085C21.4236 21.852 23.5659 22.012 25.3946 23.7128C26.9701 25.178 26.6994 26.8333 28.9639 26.3938C30.1656 24.754 28.4281 22.6175 30.2556 21.8303C34.1996 22.4743 37.5751 30.5618 40.0936 33.2095C41.3254 34.5048 43.9644 36.2258 44.9236 33.684C44.7321 31.4428 41.4789 30.3913 40.0316 29.2453C37.1859 26.9918 36.6954 23.4055 36.3664 20.031L36.3029 19.3403C38.5251 14.6153 39.3069 15.2045 43.3829 17.9728Z" fill="#FAFAF5"/>
<path id="Vector_26" d="M53.5859 27.5418C54.6637 27.4691 53.9887 27.7991 54.8629 27.6986C55.8239 29.2083 55.5269 30.8283 55.4844 32.5996C55.3537 31.9983 55.2927 31.7061 55.0629 31.1371L54.4307 30.9968C54.8497 30.0596 53.9702 28.4868 53.5859 27.5418Z" fill="#27301C"/>
<path id="Vector_27" d="M54.4303 30.9972C53.4753 30.3382 52.4171 28.0522 52.5343 26.9547L52.9133 26.8877L53.5856 27.5422C53.9698 28.4872 54.8493 30.0599 54.4303 30.9972Z" fill="#27301C"/>
<path id="Vector_28" d="M33.7852 42.6602C37.3942 44.4352 42.3457 45.7929 46.0844 43.5757C47.6297 43.7507 48.2107 43.8659 49.7062 44.2572L49.8424 44.5467C48.4639 46.1647 38.5149 46.0067 36.2654 45.2529C35.8422 45.1112 34.2019 43.8662 33.7627 43.4874C33.6817 43.4177 33.6019 43.3464 33.5234 43.2737L33.7852 42.6602Z" fill="#27301C"/>
<path id="Vector_29" d="M52.3494 31.9473L52.6549 32.3153C53.5887 36.4703 52.0422 38.825 50.6484 42.3343L50.3164 41.877C50.3837 38.9763 51.2599 34.587 52.3494 31.9473Z" fill="#27301C"/>
<path id="Vector_30" d="M14.9833 47.957C15.835 47.9975 16.7845 48.7475 17.4053 49.3028C16.9793 49.7153 14.814 50.1805 13.9788 50.4485C12.8798 50.4133 11.0615 50.677 9.91602 50.8078C11.8723 49.359 12.8123 48.8908 14.9833 47.957Z" fill="#27301C"/>
<path id="Vector_31" d="M38.6484 24.7412C41.0987 25.3327 42.7922 27.535 43.6269 29.8315C43.3729 29.8115 43.1874 29.7792 42.9527 29.666C40.8954 28.6945 39.3359 26.91 38.6484 24.7412Z" fill="#27301C"/>
<path id="Vector_32" d="M19.1836 40.168C20.2726 40.323 21.8851 42.26 23.1111 42.8767C24.6033 43.6277 25.1703 43.0657 26.1476 44.2092C23.0476 44.614 20.3113 43.1485 19.1836 40.168Z" fill="#27301C"/>
<path id="Vector_33" d="M38.6409 49.7416C40.2032 49.2583 41.8442 48.6341 43.4667 48.7211L43.6164 48.9748C42.2962 49.8491 40.1504 50.1096 38.5449 50.3428L38.6409 49.7416Z" fill="#27301C"/>
<path id="Vector_34" d="M35.418 30.3721C36.6437 30.8663 38.4115 33.8108 38.881 35.0553C37.039 34.5301 36.0895 31.9853 35.418 30.3721Z" fill="#27301C"/>
<path id="Vector_35" d="M28.7374 36.9678C29.5184 37.0158 30.0259 36.9753 30.6787 37.4258C30.8604 38.2155 30.7619 38.0463 30.3214 38.946C29.5831 38.9693 29.2827 39.0558 28.6764 38.65C28.4049 37.7575 28.5002 37.974 28.7374 36.9678Z" fill="#27301C"/>
<path id="Vector_36" d="M38.5448 50.3434L38.0568 50.4362C37.1193 50.6127 35.4816 51.1019 34.8406 50.6634L34.3398 50.8357C35.5206 50.1999 37.2828 49.9872 38.6408 49.7422L38.5448 50.3434Z" fill="#27301C"/>
<path id="Vector_37" d="M33.5235 43.2734C32.917 42.8884 32.0073 42.3539 31.9062 41.6279C32.71 41.6374 33.128 42.1267 33.7853 42.6599L33.5235 43.2734Z" fill="#27301C"/>
<path id="Vector_38" d="M23.7949 31.0039C25.0639 31.1539 25.5939 31.4262 26.1057 32.6024C24.9519 32.1614 24.2762 32.0382 23.7949 31.0039Z" fill="#27301C"/>
<path id="Vector_39" d="M29.0762 129.688C29.9747 121.737 30.7292 119.096 36.3007 112.739C37.8342 110.989 39.6374 108.648 40.4824 106.444C41.0074 105.076 41.1944 102.464 41.6147 100.85C43.6417 100.763 44.6489 103.842 45.7167 105.107C46.4374 105.961 47.2869 104.749 48.0214 105.937C48.0087 106.798 47.9849 107.451 47.9012 108.307C46.9497 109.593 44.2719 112.284 44.2357 113.382L44.6164 113.61C46.6377 113.08 48.5457 109.581 50.8889 108.589C54.3879 107.108 58.0294 106.473 61.7544 105.244C61.3879 108.188 60.2392 109.278 59.7102 111.66C63.4704 112.413 68.4762 113.911 71.4079 116.504C73.6089 116.471 74.9712 116.407 77.1477 116.128C76.9079 117.905 76.6452 119.246 76.2579 120.999C74.8492 122.438 72.0489 124.285 70.2982 125.534C68.3952 125.45 67.8237 125.59 66.0379 126.228C66.6317 127.063 67.3437 127.846 67.3022 128.853C65.8139 132.762 56.5377 126.325 54.4622 125.815C54.6014 127.07 59.7094 130.198 57.9977 133.337C57.5979 134.07 57.6414 135.279 56.5367 135.707C55.2892 135.49 55.2177 134.177 54.3474 134.151C53.9382 135.168 53.9919 137.359 53.9744 138.522C53.1907 139.677 52.5237 140.673 51.2104 141.283C49.6252 142.021 46.5434 142.679 44.9667 141.701C44.5262 141.048 44.6142 141.359 44.6892 140.505C45.6322 139.532 47.2194 138.104 48.0179 137.163C48.0247 134.307 47.8167 133.512 46.7079 130.873C45.4097 130.071 43.7117 129.243 42.5797 128.512C38.5657 128.397 34.3029 128.645 32.7664 133.229L33.6049 133.282L34.1222 133.352C34.5529 134.494 34.8039 135.876 34.3832 137.05C33.7042 137.742 33.5362 137.724 32.5934 137.225L31.5129 137.196L31.2554 137.448C30.3907 137.089 29.8149 136.009 29.9279 135.106C31.1172 125.582 38.4599 119.659 47.6782 119.42C47.2829 119.053 46.8297 119.028 46.3234 119.101C47.1272 119.003 47.2562 118.944 47.8909 118.475L48.0464 118.359C39.5647 117.419 33.5232 123.261 29.0762 129.688Z" fill="#FAFAF5"/>
<path id="Vector_40" d="M33.6053 133.282L34.1225 133.352C34.5533 134.494 34.8042 135.876 34.3835 137.05C33.7045 137.742 33.5365 137.724 32.5938 137.225C32.8927 135.563 33.0175 134.884 33.6053 133.282Z" fill="#FAFAF5"/>
<path id="Vector_41" d="M48.0472 118.358C49.3522 118.379 50.8267 118.27 51.959 118.858L52.056 119.211C50.8502 119.808 49.0657 119.516 47.679 119.42C47.2837 119.053 46.8305 119.028 46.3242 119.101C47.128 119.003 47.257 118.944 47.8917 118.475L48.0472 118.358Z" fill="#27301C"/>
<path id="Vector_42" d="M31.5137 137.196C31.8797 135.637 32.2137 134.721 32.7672 133.229L33.6057 133.282C33.0179 134.884 32.8932 135.563 32.5942 137.225L31.5137 137.196Z" fill="#27301C"/>
<path id="Vector_43" d="M61.8457 114.034C63.1352 113.846 68.0085 115.663 68.8035 116.764C67.368 116.882 62.5867 115.075 61.8457 114.034Z" fill="#27301C"/>
<path id="Vector_44" d="M40.3027 114.598L41.233 114.756C42.1265 115.464 42.6322 116.561 42.992 117.618C41.318 117.451 40.6935 115.999 40.3027 114.598Z" fill="#27301C"/>
<path id="Vector_45" d="M43.7086 122.766C44.1688 122.906 44.291 123.033 44.6678 123.315C45.08 124.043 44.8795 124.836 44.7838 125.692C42.9765 125.544 43.4113 124.055 43.7086 122.766Z" fill="#27301C"/>
<path id="Vector_46" d="M37.8184 115.326C38.9297 115.592 39.6719 117.02 39.7254 118.082C37.9637 117.761 37.8147 116.914 37.8184 115.326Z" fill="#27301C"/>
<path id="Vector_47" d="M120.233 7.37305C122.911 8.40355 123.662 9.23905 125.659 11.24C125.695 11.276 126.649 11.3185 127.46 12.1025C132.132 16.6158 123.934 21.1485 123.927 23.3603C125.294 23.6928 131.806 18.1923 135.199 17.368C139.515 16.3195 142.15 16.8555 146.597 18.1338C146.922 18.2273 146.914 18.5303 146.979 18.847C146.135 20.3588 144.884 20.5185 143.268 20.9968C146.072 23.0945 147.28 23.9673 148.673 27.2305C147.296 30.826 146.668 31.5585 143.643 33.8863C141.413 34.066 140.298 34.0998 138.07 33.9713C136.501 32.4385 132.761 26.6568 130.021 30.8943C129.123 32.283 129.734 33.5985 130.227 35.0458C126.612 33.118 126.246 31.9588 127.701 28.1943C135.973 25.43 134.92 30.7238 140.856 32.4073C144.17 33.3473 145.915 28.3118 142.881 25.6215C138.713 21.9268 130.397 22.725 126.398 26.438C120.805 31.528 121.109 38.3343 115.541 43.7343C115.508 45.0423 115.071 48.2926 116.043 49.0698C118.551 48.8413 117.113 42.9875 118.987 41.044L119.094 40.9351C120.453 39.5236 122.173 38.7188 123.809 37.2998C123.883 38.1315 124.261 41.2448 124.643 41.7943C125.937 41.4493 125.652 40.5708 126.537 40.2705C130.747 38.8428 130.709 39.664 134.153 36.7028C135.297 41.4758 134.868 45.64 131.539 49.2875C130.812 50.0848 129.405 52.084 129.04 53.0843L129.199 53.3985L130.186 53.6028C130.331 55.0933 124.95 59.4341 123.933 61.659C122.334 65.1563 123.027 67.2663 124.068 70.7103C121.919 67.982 120.155 65.7918 120.725 62.2343L120.522 61.97C119.94 62.3368 119.653 62.5963 119.14 63.0358L118.811 63.178L118.634 63.6755C119.526 66.0283 123.548 70.9913 122.873 73.139L122.45 73.2058C121.538 72.391 121.158 71.3208 120.469 70.3535C112.735 59.5988 111.369 44.6838 115.821 32.3513C117.192 28.5538 129.362 9.08455 117.677 11.3685C117.299 12.498 116.973 13.943 116.674 15.1173C112.782 18.0063 112.051 16.7898 108.865 13.7268C109.433 13.9535 110.003 14.1755 110.574 14.3925C112.04 14.947 113.042 15.4235 114.512 14.761C115.87 13.4825 115.8 11.181 116.118 9.18555C117.576 8.1658 118.587 7.8648 120.233 7.37305Z" fill="#FAFAF5"/>
<path id="Vector_48" d="M118.634 63.6756C117.301 60.5451 118.013 49.0728 121.918 48.9863C122.103 50.0276 120.507 50.9948 119.927 52.9648C118.774 56.8766 118.672 59.0708 119.14 63.0358L118.811 63.1781L118.634 63.6756Z" fill="#27301C"/>
<path id="Vector_49" d="M132.749 44.418L133.133 44.7685C133.121 45.5222 130.963 48.287 130.381 49.11L130.163 49.1682L129.949 48.881C130.52 46.8742 131.408 45.9337 132.749 44.418Z" fill="#27301C"/>
<path id="Vector_50" d="M120.698 25.0322C121.98 25.5935 122.418 25.7412 122.853 27.092C121.563 26.914 120.603 26.4282 120.698 25.0322Z" fill="#27301C"/>
<path id="Vector_51" d="M115.023 51.3656C116.268 51.1068 117 51.1238 118.134 51.6468C116.971 51.8696 116.08 51.9353 115.023 51.3656Z" fill="#27301C"/>
<path id="Vector_52" d="M127.385 78.6283C127.411 77.4796 127.372 76.2786 127.971 75.3248C128.084 75.1831 128.856 73.3868 128.857 73.3876C124.243 62.1923 124.852 63.3108 132.794 54.6436C138.113 58.5448 135.783 60.4346 136.182 65.4451L136.556 65.5971C137.621 65.1616 138.375 64.2426 139.183 63.4086C141.684 70.0991 137.21 71.8148 139.546 78.4533C140.317 78.5768 141.063 78.5906 141.545 79.1906L141.603 79.5451C142.147 79.9488 144.262 81.5716 144.731 81.8021C147.74 83.2491 160.894 90.5188 163.64 92.5161L164.439 92.1993C156.939 84.6888 157.764 80.0151 164.846 72.4131C165.312 71.9133 165.617 71.5888 166.288 71.5746L166.653 72.7118C167.994 73.5468 169.587 71.2058 172.214 71.3698C175.017 71.5448 180.086 72.3261 180.051 76.1368C179.83 76.9613 179.223 77.2901 178.53 77.8091C178.422 78.8086 179.59 78.6043 179.894 80.8221C180.331 84.0163 179.807 85.2968 178.174 87.7591L175.705 88.6556C173.142 87.9851 171.4 86.1421 169.353 86.5786C167.795 87.8601 169.042 89.1233 168.345 90.6233C165.942 89.0078 166.518 87.6226 166.816 85.1681C167.285 84.8366 168.057 83.9271 168.398 83.6933C169.807 82.7278 172.602 84.3993 174.203 84.4288C174.686 84.4413 175.404 84.3406 175.726 83.9258C176.859 82.5151 176.899 79.2036 175.461 77.9536C170.198 73.3798 161.557 77.1841 162.337 84.4538C162.932 89.9931 167.193 93.6731 170.999 97.0156C171.037 98.0136 171.096 98.7506 170.941 99.7376C170.317 100.539 168.859 100.761 168.093 100.276C165.616 98.7046 163.443 96.1625 160.86 94.7333C158.705 93.5418 156.179 92.6541 153.955 91.5783C146.328 87.9033 133.92 83.5468 127.385 78.6283Z" fill="#FAFAF5"/>
<path id="Vector_53" d="M139.547 78.4531C140.318 78.5766 141.063 78.5904 141.546 79.1904L141.604 79.5449C142.148 79.9486 144.263 81.5714 144.732 81.8019C143.433 82.9606 144.415 82.5199 143.773 83.5359C142.277 83.0774 140.396 79.8681 139.547 78.4531Z" fill="#27301C"/>
<path id="Vector_54" d="M143.773 83.5359C143.897 81.6164 141.697 81.6249 141.604 79.5449C142.148 79.9487 144.262 81.5714 144.731 81.8019C143.432 82.9607 144.415 82.5199 143.773 83.5359Z" fill="#27301C"/>
<path id="Vector_55" d="M164.44 92.1992C164.898 92.5827 166.042 93.4945 166.361 93.9027L166.266 94.3052L166.506 94.3317C165.628 94.2695 164.381 93.1092 163.641 92.516L164.44 92.1992Z" fill="#27301C"/>
<path id="Vector_56" d="M130.556 72.8398C132.313 73.3813 133.348 77.8186 134.873 79.4771C136.246 80.9696 136.914 79.9993 137.563 80.5881C139.651 82.4823 139.743 83.1971 142.32 84.6543C140.567 84.9588 137.273 82.7941 135.964 81.7521C134.358 80.4741 130.154 74.7071 130.556 72.8398Z" fill="#27301C"/>
<path id="Vector_57" d="M133.754 58.167L134.272 58.4752C134.892 59.3727 135.279 61.27 135.507 62.3827C135.147 62.4125 134.955 62.2782 134.627 62.1232C133.809 60.8635 133.729 59.643 133.754 58.167Z" fill="#27301C"/>
<path id="Vector_58" d="M53.3632 91.5771C54.7627 91.4043 55.2349 91.5396 56.5094 91.6171C65.3724 92.1561 73.1912 93.5596 80.0232 99.7678C81.6897 101.282 83.0347 102.143 84.6267 104.031C83.4514 104.537 81.9017 104.932 80.9099 105.684C81.1889 106.67 83.7152 110.172 84.2904 111.584C86.9349 118.073 87.4114 122 85.1602 128.396C84.2017 127.479 83.5414 127.015 82.4764 126.25C82.5524 127.696 82.5204 129.244 82.5177 130.699C81.5244 132.258 78.0334 136.382 76.1262 136.721C75.1274 136.899 75.4762 135.945 74.5044 135.368C72.9744 136.294 72.4429 136.583 70.7634 137.208C69.7984 136.86 68.4532 136.146 67.5012 135.678C67.5232 134.654 67.3924 133.524 67.3004 132.495C71.1482 132.334 72.8669 133.829 76.1342 130.372C83.2392 122.855 80.9359 110.06 73.8559 103.421C62.2129 92.8651 40.5649 92.6998 28.8234 103.061C26.0552 105.504 23.1407 107.943 20.8232 110.829C19.0277 113.066 15.4064 120.709 12.5037 121.149L12.2949 120.859C14.2524 115.817 14.6712 114.849 17.6284 110.469C23.1864 102.238 33.8377 95.6113 43.3054 93.1621C45.4974 92.5951 50.6179 92.0266 53.3632 91.5771Z" fill="#FAFAF5"/>
<path id="Vector_59" d="M50.2091 160.09C49.6641 158.762 48.4986 155.472 48.4531 154.139C49.0671 153.991 49.5296 154.189 50.0666 154.569C58.3681 160.442 64.9211 168.812 76.3334 166.562C80.2266 165.795 84.2471 162.672 86.5979 159.421C87.1524 158.655 87.5206 157.063 87.7551 156.088L87.7939 156.207C89.1166 160.172 93.8131 164.321 90.2546 168.205L91.1211 168.611C91.7441 168.147 91.7739 167.948 92.4176 167.981C93.8294 171.965 67.2744 182.021 61.0489 178.663L60.8599 178.292L60.9696 178.067L60.8781 177.35L61.6706 177.144C58.0269 176.901 56.9064 174.753 55.4554 171.62C53.9976 168.472 52.8356 165.182 51.1641 162.134C50.7999 162.304 50.1349 162.643 49.7784 162.738L48.7041 161.225C49.0499 161.014 49.8481 160.366 50.2091 160.09Z" fill="#FAFAF5"/>
<path id="Vector_60" d="M91.1206 168.611C91.7436 168.147 91.7734 167.948 92.4171 167.981C93.8289 171.965 67.2739 182.021 61.0484 178.662L60.8594 178.291L60.9691 178.067L60.8776 177.35L61.6701 177.144C70.5579 177.493 83.3439 173.857 90.2541 168.205L91.1206 168.611Z" fill="#FAFAF5"/>
<path id="Vector_61" d="M90.2535 168.205L91.1199 168.611C81.2789 175.677 72.662 177.752 60.9685 178.067L60.877 177.35L61.6695 177.144C70.5572 177.493 83.3432 173.857 90.2535 168.205Z" fill="#27301C"/>
<path id="Vector_62" d="M50.2081 160.091L51.1631 162.135C50.7989 162.305 50.1339 162.644 49.7774 162.738L48.7031 161.226C49.0489 161.015 49.8471 160.367 50.2081 160.091Z" fill="#27301C"/>
<path id="Vector_63" d="M131.2 111.283C134.976 111.899 141.127 114.622 141.012 119.53C141.004 119.833 140.427 120.098 140.145 120.28L140.073 120.669C140.602 121.233 140.739 121.359 141.098 122.07C141.071 122.902 141.186 122.616 140.735 123.211L139.747 123.244L139.583 123.584C140.294 123.966 140.703 124.097 141.029 124.849C140.974 125.491 140.942 125.801 140.324 126.201L140.202 126.493C140.607 127.168 141.054 127.72 140.899 128.488L140.71 128.796L139.947 129.567C140.591 130.072 140.665 130.148 141.073 130.856C141.053 131.621 141.169 131.354 140.664 131.869C138.005 132.474 131.915 127.59 129.56 126.132C131.457 129.533 135.432 131.368 138.836 132.705C134.514 133.57 136.264 133.405 132.413 132.371L132.372 132.625C133.141 133.062 133.875 133.412 134.464 134.069C133.948 135.387 132.502 133.847 131.27 134.504L131.382 135.494C130.902 136.04 129.167 136.372 128.358 136.59C126.008 135.996 117.183 134.044 118.759 130.081C118.937 129.634 120.422 128.803 120.902 128.519C119.529 127.534 118.025 126.026 116.972 124.614C114.892 121.825 113.453 118.941 114.031 115.356C114.011 115.288 114.27 114.77 114.328 114.77C117.268 114.754 117.697 115.044 120.283 113.509L125.908 113.503L130.536 116.409C130.805 114.962 130.965 112.865 131.2 111.283Z" fill="#FAFAF5"/>
<path id="Vector_64" d="M139.947 129.567C139.438 129.261 138.933 128.95 138.43 128.633C137.976 128.343 137.203 127.898 137.098 127.419C138.299 127.537 139.477 128.287 140.709 128.796L139.947 129.567Z" fill="#27301C"/>
<path id="Vector_65" d="M116.127 119.896C116.49 120.086 120.001 124.464 120.058 125.168C118.583 124.579 115.914 121.706 116.127 119.896Z" fill="#27301C"/>
<path id="Vector_66" d="M118.158 119.217C119.347 119.843 121.286 121.591 121.627 122.902C119.908 122.504 118.165 121.077 118.158 119.217Z" fill="#27301C"/>
<path id="Vector_67" d="M156.718 102.054C158.394 101.491 161.537 100.878 163.296 100.989L163.622 101.32L163.461 102.205C163.621 102.387 164.198 103.015 164.291 103.192C163.606 103.62 163.326 103.728 163.008 104.495C162.999 105.274 162.998 105.379 163.355 106.068C162.785 105.975 162.6 105.791 161.999 105.916C161.588 109.222 161.658 111.187 159.819 114.024C160.861 113.724 164.545 112.397 165.18 112.402C166.711 114.195 163.055 122.673 160.894 124.087C158.639 125.562 154.92 127.553 152.168 127.424C151.589 126.487 152.555 126.367 151.79 125.368C151.204 126.228 150.814 127.353 150.215 127.765C149.826 127.083 149.925 126.295 149.94 125.502C150.109 123.46 151.37 119.708 152.008 117.653L151.819 117.302C149.754 118.278 149.404 125.38 147.928 127.088L147.584 126.975C147.01 125.891 146.989 124.006 146.586 122.595C145.822 122.548 146.344 123.154 145.479 123.698C144.094 122.588 144.939 122.323 144.68 120.558L144.247 120.465C143.741 120.895 143.611 121.093 142.986 121.177C142.337 120.49 142.026 118.258 141.667 117.369C140.47 114.405 144.222 106.187 147.741 106.607C148 107.06 148.158 107.314 148.472 107.732C149.744 107.361 150.45 105.456 152.39 104.258C153.633 103.291 155.259 102.686 156.718 102.054Z" fill="#FAFAF5"/>
<path id="Vector_68" d="M152.391 104.258C153.634 103.291 155.26 102.686 156.719 102.054L156.607 102.998C157.342 103.029 157.661 102.917 158.201 103.271L158.061 103.626C156.118 104.456 155.32 104.335 153.425 106.018C152.955 105.642 153.107 105.883 153.007 105.239C152.942 104.736 152.75 104.622 152.391 104.258Z" fill="#27301C"/>
<path id="Vector_69" d="M152.391 104.258C153.634 103.291 155.26 102.686 156.719 102.054L156.607 102.998C155.444 103.306 153.955 104.46 153.007 105.239C152.942 104.736 152.75 104.622 152.391 104.258Z" fill="#27301C"/>
<path id="Vector_70" d="M162 105.916C162.071 104.366 162.583 103.445 163.462 102.204C163.622 102.387 164.199 103.015 164.292 103.192C163.607 103.62 163.327 103.727 163.009 104.494C163 105.274 162.999 105.379 163.356 106.067C162.786 105.974 162.601 105.79 162 105.916Z" fill="#27301C"/>
<path id="Vector_71" d="M149.94 125.502C150.804 124.912 150.888 124.578 151.79 125.368C151.204 126.229 150.814 127.353 150.216 127.765C149.826 127.083 149.925 126.295 149.94 125.502Z" fill="#FAFAF5"/>
<path id="Vector_72" d="M162.16 118.202L162.44 118.629C162.084 120.562 161.313 121.351 160.085 122.823C159.828 122.576 159.917 122.648 159.793 122.258C160.254 120.751 161.175 119.414 162.16 118.202Z" fill="#27301C"/>
<path id="Vector_73" d="M57.6503 48.8965C57.0995 47.3477 54.5613 46.7132 53.7808 45.237L53.944 44.856C54.6023 44.6992 55.2653 44.564 55.9323 44.4507C55.196 43.4492 55.2475 44.535 54.6118 43.418C55.6905 41.741 57.586 44.1295 58.02 40.7542C59.0553 39.4902 63.3898 39.9825 64.9673 40.0435C67.2135 41.5637 70.9983 45.2517 69.4235 48.471C69.0695 49.1945 67.9015 48.6597 68.156 49.4445C68.7985 51.1247 69.1325 51.7022 69.437 53.5335C69.8188 54.9947 70.0545 55.9072 69.9288 57.456C69.574 59.9252 69.0713 62.4222 65.9815 61.6882C63.5738 61.1162 63.3285 61.5505 61.2363 61.4675C60.266 61.597 58.2978 62.034 57.543 61.9962C56.6308 61.0105 55.182 60.6367 53.9163 60.201C53.7385 61.8532 53.9588 63.0782 52.5035 64.0155C51.2125 64.2367 48.3045 62.747 46.9668 62.1835C44.822 59.0812 44.8958 58.0302 44.9818 54.4177C46.3118 55.252 47.4208 55.8795 48.8058 56.6187C47.8858 55.2622 46.1975 53.968 46.32 52.5082C47.103 52.3682 47.268 53.184 48.5048 53.676C48.8665 53.257 48.75 53.3882 48.7175 52.6445C48.0328 51.8012 47.5548 51.5062 47.981 50.4517C48.5578 50.3915 48.6828 50.6205 49.2693 50.989C50.772 50.6095 51.3473 45.8672 56.686 50.4825L57.6503 48.8965Z" fill="#FAFAF5"/>
<path id="Vector_74" d="M68.9684 56.6589L68.5252 56.8507L68.1804 56.6184C67.8782 55.5682 67.2042 53.6354 67.7292 52.6807C68.4204 53.0257 68.4057 53.3022 68.8589 54.0689L69.4374 53.5339C69.8192 54.9952 70.0549 55.9077 69.9292 57.4564C69.5827 56.7942 69.7944 57.0204 68.9684 56.6589Z" fill="#27301C"/>
<path id="Vector_75" d="M69.4379 53.5332C69.8196 54.9945 70.0554 55.907 69.9296 57.4557C69.5831 56.7935 69.7949 57.0197 68.9689 56.6582C68.9824 55.9067 68.8984 54.8449 68.8594 54.0682L69.4379 53.5332Z" fill="#FAFAF5"/>
<path id="Vector_76" d="M57.6518 48.8965C57.9118 49.9367 59.4578 51.3277 60.2033 52.4412C59.4138 51.9777 57.3515 50.5345 56.6875 50.4825L57.6518 48.8965Z" fill="#27301C"/>
<path id="Vector_77" d="M87.1362 114.7C87.3372 114.788 87.5314 114.879 87.7092 115.01C90.7774 117.271 87.9757 137.387 87.9109 141.747C87.8792 143.898 88.3272 146.332 88.6439 148.463C89.6179 155.015 97.2089 165.576 102.396 169.405C111.268 175.955 122.004 178.037 132.829 176.403C133.52 175.613 134.344 174.128 135.151 173.503C139.347 170.254 141.11 173.018 145.273 168.537C147.927 177.483 138.797 173.582 138.634 177.18C140.547 178.98 147.552 177.364 149.877 176.524C150.288 176.476 150.74 176.471 151.143 176.553C154.832 177.305 156.705 177.664 158.956 180.736C148.221 177.966 145.809 182.311 135.437 181.574L133.625 179.495C129.463 179.465 125.334 180.381 121.146 179.847C107.784 178.144 96.1862 170.379 89.8434 158.469C85.1589 149.672 84.5902 143.967 85.7649 134.084C86.2457 130.04 87.3157 126.362 87.7469 122.335C87.9984 119.806 86.9729 116.555 87.1362 114.7Z" fill="#FAFAF5"/>
<path id="Vector_78" d="M161.586 125.598C164.874 125.224 167.084 124.97 170.414 125.02C170.129 126.321 169.87 127.628 169.638 128.939C172.955 128.647 174.502 129.843 177.657 130.443C178.468 130.598 179.121 130.045 179.894 130.513C180.131 131.653 180.018 132.956 179.973 134.133C175.2 138.318 176.287 139.259 169.917 142.553C170.957 142.82 172.148 143.094 173.164 143.393C170.722 147.792 168.989 147.748 164.191 149.293C160.951 148.662 155.314 145.765 156.134 141.796C156.229 141.342 156.38 140.9 156.583 140.483C156.002 140.26 155.417 140.047 154.829 139.844L154.678 139.462C155.202 138.907 158.799 138.453 160.938 137.404C159.543 137.447 154.831 137.71 153.889 136.964L153.923 136.816L154.096 136.875L154.383 136.484L154.938 136.425L154.469 136.243C155.282 135.497 156.176 135.659 156.584 134.7L156.708 135.106C157.682 133.225 158.92 133.75 159.687 132.605C159.031 131.296 158.776 131.819 158.952 130.779C160.138 129.503 160.927 130.301 161.381 129.485C160.423 128.404 160.444 128.976 160.359 127.829C160.776 126.891 161.03 126.467 161.586 125.598Z" fill="#FAFAF5"/>
<path id="Vector_79" d="M154.938 136.425L154.469 136.243C155.282 135.497 156.176 135.659 156.584 134.7L156.707 135.106C158.113 135.096 158.827 135.095 160.236 134.864L160.537 135.082C160.021 136.253 156.557 135.903 154.938 136.425Z" fill="#27301C"/>
<path id="Vector_80" d="M149.804 147.464C151.634 148.298 151.023 150.316 152.816 150.602C153.004 149.706 153.15 149.564 153.696 148.845C154.22 149.655 154.68 150.538 155.515 150.991L155.905 150.964C155.992 150.091 155.591 149.032 155.33 148.166C156.056 147.884 157.08 147.946 157.891 147.94C162.662 150.619 163.194 152.033 164.381 157.344C162.725 157.248 161.413 157.156 159.77 156.927L160.662 160.253C159.586 162.138 158.903 163.956 158.56 166.128C158.381 167.266 158.799 169.372 158.302 170.347C157.498 170.547 157.356 170.548 156.539 170.536L155.318 170.564C152.345 170.427 148.264 167.68 146.56 165.229C145.888 164.263 145.508 162.287 144.732 161.339C144.004 162.435 143.292 163.543 142.598 164.661C141.496 163.382 140.386 161.382 139.495 159.888C139.447 157.988 139.28 151.596 141.153 150.528C143.313 150.898 142.347 152.611 143.564 153.728C144.221 153.091 143.677 151.179 144.871 150.763C146.156 151.129 145.46 152.748 146.304 153.889L146.732 153.851C147.499 152.298 146.211 149.668 147.512 148.066L148.12 148.131L149.804 147.464Z" fill="#FAFAF5"/>
<path id="Vector_81" d="M148.119 148.131L149.803 147.464C149.752 150.611 149.957 153.187 151.074 156.18C151.312 156.819 151.602 157.032 151.444 157.691C149.663 157.399 148.412 149.98 148.119 148.131Z" fill="#27301C"/>
<path id="Vector_82" d="M146.934 163.147C148.288 163.245 151.182 165.723 151.646 167.003C149.772 167.105 147.998 164.456 146.934 163.147Z" fill="#27301C"/>
<path id="Vector_83" d="M114.71 140.907C112.947 136.375 110.828 128.048 111.694 123.163C111.842 122.329 112.088 120.892 112.815 120.393C114.546 121.742 113.818 128.396 114.275 130.793C115.811 138.845 122.002 147.651 131.166 146.79C134.56 146.471 137.965 146.848 141.161 145.25C142.625 144.519 145.281 142.015 144.252 140.285L143.506 140.26C142.991 141.008 142.582 141.755 141.799 142.195L141.444 141.989C141.173 141.022 141.554 139.936 141.8 138.94C139.865 138.934 134.304 138.588 133.011 137.035C133.33 136.365 136.116 135.349 137.321 134.525C139.144 134.535 141.494 134.874 142.767 133.672C143.378 132.386 142.367 129.743 142.404 128.146C142.442 126.508 142.486 124.745 142.711 123.122C146.191 126.067 146.699 128.063 147.454 132.427C146.195 132.962 143.281 134.32 144.412 136.257C145.478 136.168 146.33 134.266 146.71 134.331C152.313 135.291 149.565 141.476 146.873 144.099C139.956 150.837 125.837 152.672 118.936 145.036C118.119 144.132 116.886 143.273 115.766 142.754C114.491 143.88 114.922 143.2 113.59 143.813C113.714 143.073 113.798 142.023 113.884 141.252C114.272 141.243 114.324 141.129 114.71 140.907Z" fill="#FAFAF5"/>
<path id="Vector_84" d="M141.801 138.939C142.244 139.882 142.426 139.983 143.507 140.259C142.992 141.008 142.583 141.754 141.8 142.195L141.445 141.988C141.174 141.022 141.554 139.936 141.801 138.939Z" fill="#27301C"/>
<path id="Vector_85" d="M114.711 140.907C114.915 141.566 115.072 142.455 115.767 142.755C114.493 143.881 114.924 143.201 113.592 143.814C113.716 143.074 113.8 142.023 113.885 141.253C114.273 141.244 114.326 141.129 114.711 140.907Z" fill="#27301C"/>
<path id="Vector_86" d="M137.738 136.067C139.131 135.922 140.03 135.575 140.896 136.74C139.354 137.118 138.623 137.4 137.738 136.067Z" fill="#27301C"/>
<path id="Vector_87" d="M87.0865 73.8324C86.6595 72.0401 86.3998 70.8341 85.327 69.2659C83.1975 66.1526 76.041 61.9246 77.299 57.2684L77.5015 57.1611C78.469 58.0269 78.6513 59.8559 79.4975 60.7139C83.2563 64.5249 88.2571 68.0186 88.7028 73.8346C89.2318 80.7379 82.153 87.7516 75.4003 88.0524C75.075 88.0661 74.7495 88.0741 74.424 88.0759C73.0498 88.8814 72.842 87.8826 72.0645 88.5689L71.952 89.2901L71.5253 89.5401C70.2255 89.4919 69.8578 88.8914 68.9831 87.9564C67.3981 87.7866 65.2755 87.3271 63.6635 87.0209C64.9648 88.4526 65.9063 89.4811 67.0245 91.0494C65.2513 91.0371 62.5818 91.1811 61.0935 90.1146C59.4513 88.9376 60.7571 88.4971 60.5746 87.0926C60.4123 87.0249 60.1663 86.9144 59.9853 86.9099C47.759 86.6004 34.7638 91.4149 25.547 99.4304C22.2563 102.292 19.8535 106.206 16.4668 109.035C17.1635 107.079 18.3173 103.827 19.886 102.484C23.1543 99.9041 26.9641 95.8589 30.5121 93.7939C39.7826 88.3981 49.4378 85.4256 60.0533 84.9589C58.7308 80.2861 60.3865 80.9284 64.0728 79.2251C64.8175 78.8811 65.8183 78.1199 66.4935 77.6116C66.4828 78.7269 66.6043 79.4739 66.7623 80.5824C65.8033 82.6356 64.0598 84.4521 62.5583 86.1731C68.6851 84.5401 74.1853 88.7474 80.772 83.5399C82.0413 82.8639 83.349 81.2061 84.2 80.0596C85.7513 77.9999 86.3813 76.3141 87.0865 73.8324Z" fill="#FAFAF5"/>
<path id="Vector_88" d="M68.9824 87.9561C70.6134 87.9906 72.8467 87.9658 74.4234 88.0756C73.0492 88.8811 72.8414 87.8823 72.0639 88.5686L71.9514 89.2898L71.5247 89.5398C70.2249 89.4916 69.8572 88.8911 68.9824 87.9561Z" fill="#27301C"/>
<path id="Vector_89" d="M67.2588 10.5381C67.8165 11.2908 67.3353 15.3556 67.6108 16.5253C68.0685 18.4676 68.6378 20.4796 69.1408 22.3938C68.4108 24.3686 67.6993 26.3498 67.006 28.3378C68.043 27.5608 69.5983 26.1513 70.7688 26.1681L71.1505 26.5713C71.5588 28.0138 70.8343 30.2858 70.3653 31.7391C69.2448 35.2098 67.6248 36.1393 64.577 37.7248C63.1758 38.4536 61.6235 38.9218 60.103 38.3858C59.841 37.7993 59.8215 37.6571 59.3595 37.2376C58.714 37.4526 58.5513 37.9686 58.0818 38.6458L57.7903 38.5143C56.8435 36.7481 61.4665 29.2318 61.25 27.8746C60.3235 28.0658 57.794 31.4563 56.832 32.5061C59.116 27.1813 57.8885 27.3341 58.641 21.9586C59.337 16.9856 63.255 13.2576 67.2588 10.5381Z" fill="#FAFAF5"/>
<path id="Vector_90" d="M59.1773 23.4832C60.4013 23.46 61.8158 23.5652 62.6643 24.5055L62.4291 24.982C61.2616 24.9855 59.2783 25.271 58.7773 24.145L59.1773 23.4832Z" fill="#27301C"/>
<path id="Vector_91" d="M67.4278 32.1465L67.6608 32.352L67.6808 32.8327C67.0138 33.8745 65.655 35.4772 64.4155 35.8115L64.123 35.4C64.2548 34.4917 66.5533 32.8537 67.4278 32.1465Z" fill="#27301C"/>
<path id="Vector_92" d="M130.562 159.771C130.538 158.821 130.603 157.183 130.221 156.386C129.433 156.524 128.225 158.414 127.452 159.046C124.914 161.119 122.12 162.701 120.181 165.43C120.219 165.376 119.573 165.65 119.6 165.478C118.161 163.963 117.085 160.727 116.675 158.931C115.768 154.954 117.83 152.503 117.979 149.723C116.998 149.112 114.938 149.599 114.889 147.369C115.435 146.3 115.624 145.82 116.478 144.997C117.309 144.901 123.433 149.613 124.484 150.381C125.086 151.511 123.98 151.965 124.825 152.425C126.334 151.413 125.435 150.588 127.451 150.795C128.475 151.683 127.31 151.773 128.335 152.592L128.736 152.453C129.238 151.325 129.019 151.286 129.884 150.915C131.726 151.279 131.233 152.204 132.47 152.271C133.131 151.527 134.209 150.123 135.4 151.04L135.809 150.605C136.723 150.468 137.56 150.322 138.486 150.297L139.225 150.339C139.507 150.683 139.718 150.842 139.564 151.34C138.171 155.827 134.773 158.491 130.562 159.771Z" fill="#FAFAF5"/>
<path id="Vector_93" d="M135.4 151.04L135.809 150.605C136.723 150.468 137.561 150.322 138.487 150.297C136.726 151.113 136.97 152.036 135.883 152.635C135.303 152.13 135.482 152.026 135.4 151.04Z" fill="#27301C"/>
<path id="Vector_94" d="M118.328 152.851L118.734 153.285C118.687 154.41 118.687 156.627 118.336 157.6C117.931 157.265 117.866 157.15 117.552 156.721C117.476 155.73 118.064 153.925 118.328 152.851Z" fill="#27301C"/>
<path id="Vector_95" d="M120.297 152.962L120.675 153.32C121.056 154.148 120.923 154.481 120.763 155.379C120.603 155.266 120.333 154.974 120.182 154.823C119.957 153.978 120.059 153.77 120.297 152.962Z" fill="#27301C"/>
<path id="Vector_96" d="M41.2542 55.0283C40.6635 55.9758 38.726 58.6836 39.0045 59.7403L39.3142 59.8121C40.6327 58.6843 41.3732 56.3566 42.5985 55.3736L43.0335 55.5066C43.98 57.6638 40.3402 59.7143 40.6187 61.4551C42.2427 60.8248 41.845 59.7206 42.9055 59.3733C43.337 59.9166 43.5117 61.3911 43.6535 62.1566C44.3697 64.6118 42.7477 65.1478 44.8537 66.6746C43.8355 67.4458 43.5507 67.7303 43.3952 69.0708C43.029 68.5163 42.7495 68.4126 42.182 68.0738C40.6307 69.6551 39.9732 70.0203 38.0662 71.1823C37.4212 71.6573 36.9817 71.9588 36.2922 72.3716L35.896 72.8241C34.2332 73.3256 32.8892 73.9893 31.5645 72.6611C31.2375 71.8403 31.4997 68.6031 31.506 67.3501C29.7065 69.3598 28.9462 70.1988 26.6005 71.5041C25.4715 71.5138 24.3795 71.5913 23.3017 71.2548C21.2992 68.8061 30.3975 60.6198 32.3125 58.8856C31.8697 59.7928 31.5002 60.4148 31.3695 61.4191L31.5825 61.6386C33.3495 60.5373 33.6982 58.6656 36.493 57.1063C36.8395 56.9301 38.1312 56.5296 38.5715 56.3836L41.2542 55.0283Z" fill="#FAFAF5"/>
<path id="Vector_97" d="M36.2924 72.3715C35.5342 71.475 34.9169 70.7493 36.4284 70.214C38.6322 69.4338 40.2034 67.3853 41.6894 65.6855C40.3987 68.7638 38.4039 69.5178 38.0664 71.1823C37.4214 71.6573 36.9819 71.9588 36.2924 72.3715Z" fill="#27301C"/>
<path id="Vector_98" d="M43.6531 62.1562C44.3694 64.6115 42.7474 65.1475 44.8534 66.6742C43.8351 67.4455 43.5504 67.73 43.3949 69.0705C43.0286 68.516 42.7491 68.4123 42.1816 68.0735L43.4746 66.431C43.4786 65.0062 43.4354 63.5615 43.6531 62.1562Z" fill="#27301C"/>
<path id="Vector_99" d="M36.4929 57.1065C36.8394 56.9303 38.1311 56.5298 38.5714 56.3838C37.7539 57.235 35.4646 60.8148 35.0386 61.0703L34.7871 60.9275C35.1889 58.9693 36.4786 58.3433 36.4929 57.1065Z" fill="#27301C"/>
<path id="Vector_100" d="M35.7464 142.059C37.3421 142.41 42.4456 147.044 44.3731 148.041C45.9764 148.871 47.4244 149.679 49.2056 150.432C46.7914 153.149 46.1286 151.848 46.6034 155.893C43.2349 155.311 38.7794 154.263 35.4729 155.35C29.5419 157.363 31.7819 166.25 37.3874 166.91C39.1594 167.119 40.6886 165.792 41.2754 167.985C40.7149 170.121 37.9924 170.155 36.1751 169.979C33.0906 169.233 32.9414 167.826 30.8744 167.379C29.9881 167.757 30.0774 168.025 29.4744 169.055C28.2676 167.099 27.3119 165.511 26.8906 163.289C25.3714 155.274 33.8959 150.68 40.8904 152.51C42.3481 152.892 43.5349 153.701 45.0336 153.41L45.1596 153.092C42.8014 149.76 37.2996 151.174 32.5204 142.587C33.9224 142.489 34.3976 142.433 35.7464 142.059Z" fill="#FAFAF5"/>
<path id="Vector_101" d="M176.81 93.7402C177.188 93.754 177.622 93.817 178.005 93.862L178.309 94.3065C178.445 96.3905 176.554 99.8717 176.854 103.395C177.23 108.756 180.03 114.424 178.731 119.834C177.841 123.538 174.407 123.123 171.628 122.321C170.386 121.096 167.09 117.065 167.335 115.345C168.38 114.94 169.727 115.1 170.728 114.689C170.997 114.578 170.891 113.902 171.826 113.616C173.024 114.43 173.251 117.12 174.574 118.509C175.318 118.809 175 118.802 175.764 118.527C177.108 115.171 163.157 102.718 172.499 102.451L172.515 97.933C173.87 96.0275 174.62 94.4762 176.81 93.7402Z" fill="#FAFAF5"/>
<path id="Vector_102" d="M113.406 152.936C114.27 153.751 116.043 161.963 115.94 163.707C115.861 165.042 115.626 166.761 115.372 168.107C107.333 177.494 98.239 164.057 94.043 157.843C95.1627 158.624 96.6757 159.742 97.3905 160.923C101.521 165.565 103.543 168.656 110.689 167.343C112.346 164.307 112.67 160.112 107.778 160.153C106.017 160.167 104.95 161.797 103.949 163.124C103.781 159.277 103.648 158.089 107.039 155.804C108.052 156.316 109.191 156.695 110.262 157.083C111.449 155.27 111.963 154.57 113.406 152.936Z" fill="#FAFAF5"/>
<path id="Vector_103" d="M57.5443 61.9965C58.2991 62.0343 60.2673 61.5973 61.2376 61.4678L60.8921 63.2778C60.0078 68.785 57.4033 73.8103 52.7388 76.9313C44.9693 82.1298 36.3788 86.5325 28.8676 92.1273C27.2741 93.3143 21.0868 99.4338 20.0386 99.5103C18.4498 93.9748 40.5573 82.3173 44.8318 80.17C49.3233 77.9138 57.0533 70.5373 57.6721 65.3553C57.6238 63.765 58.0688 63.248 57.5443 61.9965Z" fill="#FAFAF5"/>
<path id="Vector_104" d="M57.5449 61.9965C58.2997 62.0343 60.2679 61.5973 61.2382 61.4678L60.8927 63.2778C59.9914 63.3723 58.8314 63.3533 58.2504 63.984L57.6727 65.3553C57.6244 63.765 58.0694 63.248 57.5449 61.9965Z" fill="#27301C"/>
<path id="Vector_105" d="M71.4735 63.0306C71.638 63.0156 71.8033 63.0101 71.9683 63.0138C78.423 63.1311 78.118 68.2776 77.9708 73.0068L76.3923 75.6878C72.3723 77.7658 71.856 77.2593 69.0183 74.0701C71.7073 73.9083 76.368 73.4338 75.0325 68.7793C74.622 67.3488 72.7038 66.7826 71.3505 66.3598C66.757 67.6736 64.698 70.0491 61.148 73.1818C56.4128 77.5766 53.2643 80.6218 47.1973 83.1476C50.8055 79.6971 53.6328 78.0083 57.2098 75.0738C62.4733 70.7558 64.261 65.4051 71.4735 63.0306Z" fill="#FAFAF5"/>
<path id="Vector_106" d="M139.643 101.443C134.051 101.525 127.773 104.285 123.13 107.392C122.332 107.926 121.816 108.486 120.855 108.72C120.027 108.462 120.331 108.649 119.723 107.879C119.648 103.981 136.401 98.0616 140.22 97.8358C142.541 97.6988 155.443 97.5128 155.65 100.32C154.563 101.822 151.943 101.144 150.44 100.855L150.241 101.602C149.337 101.057 147.56 101.322 146.479 101.406C144.574 101.555 141.41 101.73 139.649 102.16L139.643 101.443Z" fill="#FAFAF5"/>
<path id="Vector_107" d="M139.643 101.444C142.516 101.133 147.806 99.6212 150.439 100.856L150.241 101.603C149.337 101.057 147.56 101.323 146.479 101.406C144.573 101.556 141.41 101.731 139.649 102.161L139.643 101.444Z" fill="#27301C"/>
<path id="Vector_108" d="M78.3306 27.2334C80.4101 26.9252 81.4161 27.0984 83.4211 27.4854C84.8346 27.9327 85.9221 28.2199 86.9706 29.3412C90.7406 33.3722 90.6278 42.7147 85.1646 45.3227C83.5598 46.0889 81.3906 46.3199 79.7738 45.4659L79.6501 45.0549C80.4963 44.3174 81.7426 44.4754 82.8668 44.4849C88.1861 40.5722 89.8038 34.3394 84.4373 29.6752C81.0723 29.0797 80.4976 29.0714 77.1153 29.6794C73.6371 33.7884 77.5888 34.2209 80.9851 35.7097C80.9993 37.5654 81.0321 39.4084 80.9416 41.2624C79.5116 43.1004 77.1398 44.8939 74.8846 43.1482C74.5676 42.9062 74.2726 42.6369 74.0031 42.3432C74.4518 42.0624 75.5448 41.7912 76.0998 41.6292C76.3891 41.6072 77.1168 41.5532 77.3581 41.4489C84.7548 38.2532 74.0768 36.0789 73.6711 33.7297C72.8626 29.0494 74.3038 28.1332 78.3306 27.2334Z" fill="#FAFAF5"/>
<path id="Vector_109" d="M132.352 161.372C134.275 161.999 134.763 162.294 136.475 163.454C136.72 166.468 137.481 168.981 135.248 171.68C132.849 174.582 128.467 174.936 125 175.281C120.939 175.684 118.081 174.742 114.158 173.886L114.779 173.126C119.388 174.238 130.667 175.019 132.419 168.95C132.662 168.108 132.567 167.271 132.242 166.464C128.138 162.879 124.168 173.666 120.283 171.276C119.907 171.045 119.501 170.121 119.431 169.68C120.609 168.932 121.886 170.149 123.378 168.971C127.821 165.461 126.026 163.059 132.352 161.372Z" fill="#FAFAF5"/>
<path id="Vector_110" d="M78.121 6.30656C82.5535 5.82456 85.3548 9.9153 87.673 12.9161C94.2648 13.5581 92.4038 12.2268 94.8458 6.9108C97.2028 7.24805 99.559 7.5353 101.861 8.1483C102.456 9.29355 102.92 10.8168 103.345 12.0598C100.857 10.4466 99.0593 9.74405 96.2883 8.6843C95.8198 9.9108 95.2008 12.8183 94.8428 14.2438L92.4875 15.5096C91.2335 16.2318 89.3195 16.0538 87.8718 16.0148C85.628 13.6028 83.6348 10.4976 81.1073 8.56955C78.6593 8.19805 77.8808 8.33106 75.4958 8.68806C72.9443 14.9546 75.8363 13.2981 78.3828 16.2268L78.2125 16.7026C72.6145 20.7723 68.068 7.77656 78.121 6.30656Z" fill="#FAFAF5"/>
<path id="Vector_111" d="M84.0577 129.822C84.465 129.981 84.4642 130.046 84.7212 130.393C85.647 137.809 73.8987 150.628 67.307 153.556C65.2347 154.476 58.4905 154.971 56.2717 153.954L54.2617 152.259C67.289 151.318 74.7095 148.6 81.2767 136.524C82.3702 134.513 82.8922 131.724 84.0577 129.822Z" fill="#FAFAF5"/>
<path id="Vector_112" d="M63.6108 135.544C66.1208 135.171 66.5443 136.068 68.0548 137.765C66.3983 138.046 63.4036 137.879 62.8008 140.088C62.2561 142.084 67.1418 144.933 68.5721 144.968C72.8593 145.073 75.3913 139.45 78.2306 137.38L78.5671 137.435C78.6668 138.195 78.2641 138.706 77.8781 139.412C75.4643 143.699 70.8456 147.248 65.7958 147.364C60.5326 147.485 55.6698 143.389 59.0271 138.103C59.3953 137.524 60.2713 136.701 60.7736 136.196L63.6108 135.544Z" fill="#FAFAF5"/>
<path id="Vector_113" d="M33.9545 161.055C38.336 160.89 42.549 162.042 45.4442 165.611C49.3812 170.464 41.96 173.124 41.4042 177.401C41.0722 179.956 47.1942 179.852 48.604 179.005C50.023 178.156 49.6422 175.153 50.5472 174.256C51.1942 174.822 51.403 175.655 51.7075 176.475C50.8105 181.975 42.5665 183.821 39.0392 178.599C38.7185 174.431 39.3875 173.27 43.4942 171.541L43.5015 167.93C41.7377 166.03 40.3135 164.907 38.2302 163.356C36.6787 163.425 33.955 163.907 33.1152 162.284C33.2167 161.644 33.4605 161.515 33.9545 161.055Z" fill="#FAFAF5"/>
<path id="Vector_114" d="M177.158 138.874L177.648 139.292C177.921 140.238 178.166 140.935 178.007 141.917C176.421 151.681 169.2 164.485 160.901 170.04C160.606 170.168 160.483 170.141 160.155 170.162L159.936 169.775C159.907 166.107 163.433 164.787 165.586 162.02C169.656 156.786 171.946 152.727 173.891 146.351C174.492 144.383 176.016 140.496 177.158 138.874Z" fill="#FAFAF5"/>
<path id="Vector_115" d="M82.1681 140.605L82.5094 140.781L82.6411 141.225C80.8411 147.745 72.7396 151.139 72.5164 158.077C72.4236 160.958 76.6011 160.123 78.3986 159.752C79.1176 158.895 79.8499 158.049 80.5946 157.215C79.9379 159.483 79.7356 160.865 78.1154 162.611C76.9719 163.636 75.6529 163.974 74.2244 164.376C71.8639 163.632 70.8324 162.916 69.0801 161.243C68.8099 158.09 68.6151 156.351 70.6374 153.606C73.9846 149.061 79.2939 145.392 82.1681 140.605Z" fill="#FAFAF5"/>
<path id="Vector_116" d="M24.3408 73.3399C27.8651 72.6687 30.6111 74.0614 32.8936 76.5699C34.2448 83.3654 31.3106 86.6284 25.1193 89.0372C28.4948 85.9097 32.8381 81.2734 29.4588 76.6772C26.6636 75.0964 24.1396 75.4587 21.2723 76.2139C16.8493 83.9782 28.5231 81.5024 21.5428 87.2632C21.2523 86.1764 21.0043 84.8757 20.7621 83.7612C19.9198 82.8942 19.0546 82.3009 18.0868 81.5907C17.6091 79.5022 17.7148 78.5572 18.0743 76.5197C20.2148 74.3217 21.2083 73.6964 24.3408 73.3399Z" fill="#FAFAF5"/>
<path id="Vector_117" d="M119.984 140.868C123.533 138.578 125.441 137.979 129.607 137.925C128.403 138.63 127.398 139.155 126.698 140.388C128.739 139.615 130.868 137.473 132.895 138.521C133.377 138.235 133.798 138.443 134.486 138.55C134.366 138.648 134.276 138.747 134.144 138.793C134.994 139.363 134.822 139.071 134.985 139.854C134.601 140.609 134.091 141.032 133.485 141.621L134.227 141.99L135.35 141.641L136.278 142.088C134.779 143.65 133.661 144.966 131.702 145.926C126.487 145.738 123.828 144.28 119.984 140.868Z" fill="#FAFAF5"/>
<path id="Vector_118" d="M132.895 138.521C133.377 138.235 133.798 138.443 134.486 138.55C134.366 138.648 134.276 138.747 134.144 138.793C132.723 140.518 131.4 141.089 129.373 141.789C130.692 140.769 131.973 139.91 132.895 138.521Z" fill="#27301C"/>
<path id="Vector_119" d="M133.485 141.621L134.227 141.99C133.471 142.504 133.634 142.894 132.381 143.476L132.17 143.142L132.45 143.344L132.288 142.938C132.462 142.601 133.184 141.925 133.485 141.621Z" fill="#27301C"/>
<path id="Vector_120" d="M37.7782 130.558C41.4162 131.631 40.969 136.459 38.8122 139.137C35.3497 143.436 24.755 136.685 25.024 144.273C25.0765 145.758 27.0697 147.035 28.1442 147.873C28.841 147.428 29.7195 146.787 30.4985 146.613L30.6735 146.963L30.3989 147.698C27.4042 151.538 24.5815 148.659 22.504 145.621L22.4707 142.171C26.7407 134.478 31.3327 142.165 36.6615 137.635C38.7837 135.831 35.9999 133.342 37.6512 130.754L37.7782 130.558Z" fill="#FAFAF5"/>
<path id="Vector_121" d="M115.524 65.1602C115.777 65.3574 116.157 65.7774 116.396 66.0249C116.272 66.7502 114.302 70.7867 113.872 71.8082C110.15 80.6594 114.126 94.5406 125.615 93.9431C126.85 93.8789 129.246 93.6852 130.386 94.0919C130.663 94.8877 130.525 94.7874 130.247 95.7529C128.503 95.8876 122.84 95.5072 120.467 95.5092C118.927 94.0552 116.639 92.7569 114.982 91.1264C111.732 87.9299 111.043 85.0709 110.8 80.7617C110.541 76.1599 112.332 68.5357 115.524 65.1602Z" fill="#FAFAF5"/>
<path id="Vector_122" d="M116.966 109.947C114.335 107.08 112.599 103.676 112.776 99.6571C112.856 97.8311 113.364 94.3021 114.933 93.2471L115.317 93.3961C115.931 95.1046 115.038 97.6238 114.448 99.2613C116.186 104.927 115.102 106.597 121.187 110.474C122.731 110.503 124.441 110.576 125.97 110.49C129.072 108.498 131.465 104.575 133.201 104.12L133.441 104.323C133.324 107.396 130.164 110.263 127.809 111.895C125.412 111.997 120.691 112.495 118.758 111.362C118.639 111.129 117.267 110.166 116.966 109.947Z" fill="#FAFAF5"/>
<path id="Vector_123" d="M134.184 92.643C138.403 92.2965 142.561 92.5355 146.757 92.4265C153.412 92.254 159.06 94.721 164.636 98.3192C157.348 97.038 150.894 94.703 143.387 94.4587C139.823 94.3427 138.033 95.4897 135.553 95.521C134.91 94.7937 134.398 93.5975 134.184 92.643Z" fill="#FAFAF5"/>
<path id="Vector_124" d="M92.939 165.687C94.0335 165.992 96.8632 169.296 97.6337 170.345C100.259 173.919 100.574 178.256 96.6915 180.931C91.4385 181.324 90.6425 179.792 85.8485 178.107C85.4537 177.968 85.0427 178.49 84.7922 178.743C84.2342 179.813 84.38 179.919 83.4975 180.513L82.9377 180.395L82.709 179.839C82.7562 179.103 82.985 178.294 83.4322 177.689C86.5227 173.433 93.1682 181.505 96.1557 177.254C99.3162 172.757 93.4825 169.128 92.939 165.687Z" fill="#FAFAF5"/>
<path id="Vector_125" d="M117.723 75.9946C122.976 75.7281 129.507 81.2911 130.783 86.2648C130.969 86.9863 131.043 87.1101 130.682 87.7508L130.02 87.6966C129.535 87.3871 126.642 83.5523 125.94 82.7188C124.592 80.7563 121.535 77.9113 119.003 78.7003C117.992 79.0153 117.648 80.0443 117.199 80.9261C117.954 82.3678 118.733 83.7613 117.324 85.0706C114.888 84.7381 115.445 80.1933 115.51 78.4873C116.204 77.4463 116.845 76.8633 117.723 75.9946Z" fill="#FAFAF5"/>
<path id="Vector_126" d="M52.3809 97.0992C57.9071 95.6047 74.4281 100.517 72.3996 108.378C72.1211 109.457 71.5936 111.282 70.5986 111.92C69.5726 112.074 68.4729 111.595 67.4676 111.261C67.1941 111.175 67.1139 111.059 66.8844 110.865C67.5224 109.561 69.3079 109.755 70.1739 107.835C70.2781 106.93 70.1384 106.615 69.7799 105.838C67.3969 100.675 61.5881 98.3192 56.1634 98.4467C55.0369 98.4732 51.2459 98.3082 50.2151 97.9347L50.1406 97.6867C50.6866 97.1397 51.5821 97.1735 52.3809 97.0992Z" fill="#FAFAF5"/>
<path id="Vector_127" d="M44.8534 66.6746C47.3982 66.0373 48.4402 66.0713 50.8682 67.1556C51.6909 69.8476 51.5859 70.7145 50.7237 73.52C47.8527 76.5328 42.6814 80.0606 38.6602 81.3708C41.5837 78.4401 44.5529 76.2141 47.6572 73.5446C48.3052 72.9876 48.0114 70.1475 47.9402 69.253C44.9152 68.4575 44.4022 69.4268 43.3949 69.0708C43.5504 67.7303 43.8352 67.4458 44.8534 66.6746Z" fill="#FAFAF5"/>
<path id="Vector_128" d="M78.0477 73.0759C84.0025 72.2106 84.348 74.0031 83.8935 79.3094L84.2012 80.0591C83.3502 81.2056 82.0425 82.8634 80.7732 83.5394L80.4535 83.1216C78.4365 84.1231 70.8272 86.0711 69.1582 84.5269C70.8307 82.9654 77.2272 84.3661 79.6885 81.3641C80.7272 80.0966 81.8365 78.7876 81.83 76.9394C80.8707 75.0244 79.2897 75.7906 77.738 76.3804L78.0477 73.0759Z" fill="#FAFAF5"/>
<path id="Vector_129" d="M83.8931 79.3096L84.2009 80.0593C83.3499 81.2058 82.0421 82.8636 80.7729 83.5396L80.4531 83.1218C82.2076 81.6658 82.7014 81.1586 83.8931 79.3096Z" fill="#27301C"/>
<path id="Vector_130" d="M9.40606 178.238C6.06181 176.72 4.24831 174.725 6.76706 170.816C7.30206 169.986 8.82856 169.014 9.85781 168.992C13.3768 168.917 15.9596 172.939 18.3346 175.031C19.5776 176.163 20.6893 177.098 21.9478 178.135L21.7041 178.869C19.1121 177.221 12.7088 171.433 9.25756 172.316C6.74606 172.96 8.64806 176.687 9.40606 178.238Z" fill="#FAFAF5"/>
<path id="Vector_131" d="M50.0553 152.533C53.7986 153.043 62.9358 161.079 66.6438 163.047C67.3381 163.415 69.4303 164.864 69.9831 165.435L69.9216 165.997C68.5516 165.61 63.9723 164.224 63.0886 163.547C61.0716 162.003 50.7606 154.442 49.9023 153.124L50.0553 152.533Z" fill="#FAFAF5"/>
<path id="Vector_132" d="M87.0309 53.9888C90.0139 53.881 92.7444 56.3378 90.9149 59.1973C90.2304 59.0118 89.7309 58.2378 89.1886 57.629C88.4794 57.3858 88.3264 57.4668 87.5946 57.6818C85.4309 59.6758 88.4226 64.6353 89.5149 66.895C89.8459 67.612 89.9809 68.902 89.8501 69.7195L89.4981 69.8788C89.4751 69.849 89.2621 69.589 89.2516 69.5608C87.2794 64.2173 80.6569 58.156 87.0309 53.9888Z" fill="#FAFAF5"/>
<path id="Vector_133" d="M158.164 127.284L158.453 127.307L158.606 127.58C157.831 130.134 155.08 136.857 151.752 136.1C150.917 135.473 151.1 135.774 150.779 134.945C150.936 134.377 152.924 132.996 153.788 132.15L153.803 131.782L153.415 131.606C152.91 131.868 152.403 132.124 151.894 132.375C151 132.816 149.4 133.445 148.411 133.113L148.357 132.647C150.506 128.767 154.11 128.912 158.164 127.284Z" fill="#FAFAF5"/>
<path id="Vector_134" d="M155.084 75.3164C155.955 75.3499 156.927 75.6787 157.464 76.3702L157.338 76.8432C156.725 77.6284 155.59 77.7992 154.6 78.0674C154.108 78.8987 153.707 79.9862 153.338 80.8979C154.437 82.8167 156.972 84.8512 157.144 86.6952C154.039 86.0244 152.011 83.8969 150.371 81.3639C150.364 77.5127 151.025 75.8064 155.084 75.3164Z" fill="#FAFAF5"/>
<path id="Vector_135" d="M139.649 102.161C141.41 101.731 144.574 101.556 146.479 101.406L147.513 102.001C146.992 102.251 146.64 102.338 146.09 102.498C142.299 102.624 140.338 103.365 138.703 106.809C139.445 107.625 140.097 108.116 140.871 109.054C140.932 109.889 141.026 109.595 140.583 110.196C136.87 111.967 130.894 107.063 139.649 102.161Z" fill="#FAFAF5"/>
<path id="Vector_136" d="M85.722 90.2734C86.9308 90.3022 88.468 90.3742 89.4015 91.2359C93.8972 95.3849 88.5835 106.722 83.0938 106.954C83.3078 106.243 83.9627 105.678 84.4825 105.16C87.9515 101.705 89.679 100.001 89.4717 94.8832C89.0337 94.1017 88.4415 93.2667 87.9342 92.5149C86.7952 92.5252 84.8988 92.7527 84.1875 91.8034C84.6225 90.8362 84.732 90.9854 85.722 90.2734Z" fill="#FAFAF5"/>
<path id="Vector_137" d="M155.318 170.563L156.539 170.536L155.967 170.921L156.027 171.718C156.417 174.143 149.47 175.298 147.594 175.825C146.212 176.214 141.042 177.64 140.016 176.993C140.323 176.38 152.047 171.7 153.596 171.15C154.299 170.745 154.476 170.604 155.318 170.563Z" fill="#FAFAF5"/>
<path id="Vector_138" d="M155.318 170.563L156.539 170.536L155.967 170.921L156.027 171.718C155.35 171.427 154.351 171.289 153.596 171.15C154.299 170.745 154.476 170.604 155.318 170.563Z" fill="#27301C"/>
<path id="Vector_139" d="M16.0292 8.34427C17.734 8.16602 20.2664 8.56228 20.7769 10.4345C19.5239 14.2238 14.9472 7.08977 16.5547 15.8075C16.5752 15.9255 16.5944 16.0438 16.6127 16.162C16.7414 16.9943 16.8447 17.256 16.428 17.828C15.4482 17.5773 14.2959 16.1573 13.5087 15.3393C13.4299 12.461 12.594 9.33377 16.0292 8.34427Z" fill="#FAFAF5"/>
<path id="Vector_140" d="M51.0243 142.733C51.9126 142.64 52.5646 142.516 53.1826 143.173C53.1661 143.944 52.3943 144.707 51.8761 145.342L52.6196 147.715C56.6253 150.092 57.5106 148.784 60.6751 149.792L60.7201 150.132L60.0328 150.659C54.0281 152.24 44.0401 145.973 51.0243 142.733Z" fill="#FAFAF5"/>
<path id="Vector_141" d="M120.808 87.3838C123.462 88.2038 126.467 89.067 129.249 88.562C130.665 88.305 132.964 87.5038 134.325 88.1695C134.428 88.935 134.223 88.9213 133.69 89.7238L131.788 90.9528C129.404 91.0358 119.513 91.4673 120.808 87.3838Z" fill="#FAFAF5"/>
<path id="Vector_142" d="M25.8262 108.219C27.7562 106.297 29.0949 105.472 31.9384 105.392C34.0159 105.334 35.6674 106.342 35.4517 108.613C35.1917 111.352 33.7744 112.256 31.7902 113.838L31.2847 113.684C32.1222 112.085 33.1494 110.56 32.9142 108.767C31.7394 106.814 28.7577 107.284 27.0902 108.342C26.8257 108.511 26.5667 108.689 26.3134 108.875L25.8262 108.219Z" fill="#FAFAF5"/>
<path id="Vector_143" d="M151.508 138.837C153.846 138.993 156.468 144.119 155.805 146.187C155.059 146.676 154.928 146.467 153.817 146.386C153.606 146.286 153.398 146.181 153.192 146.07C152.239 145.556 149.997 144.35 149.807 143.326C149.673 142.608 150.93 142.291 151.513 141.305C150.524 140.071 150.816 140.006 151.508 138.837Z" fill="#FAFAF5"/>
<path id="Vector_144" d="M177.588 153.928C178.323 154.133 178.076 154.051 178.727 154.695C179.781 157.555 174.076 161.409 172.154 162.78L171.88 162.876L171.611 162.667C171.892 160.045 175.451 155.572 177.588 153.928Z" fill="#FAFAF5"/>
<path id="Vector_145" d="M130.965 5.99283C132.996 5.83833 135.91 6.33958 135.372 9.15783C134.922 11.5163 133.111 12.7548 131.277 14.0406L130.96 14.2971L130.62 14.2398C130.99 12.5743 134.67 10.0218 131.709 8.36983C131.067 8.01158 130.561 7.78608 129.998 7.30358C130.114 6.50883 130.198 6.66558 130.965 5.99283Z" fill="#FAFAF5"/>
<path id="Vector_146" d="M8.31884 7.39862C9.20034 7.36762 9.46959 7.33812 9.95034 8.00662C10.0843 9.07862 9.22284 11.0201 8.81684 12.1496C9.87859 15.0374 10.6948 14.9716 12.1908 17.4776C12.3383 17.7249 12.0746 17.9461 11.8598 18.2421C9.32609 16.7374 6.67884 13.0376 6.74334 9.96812C6.76859 8.76037 7.46884 8.14687 8.31884 7.39862Z" fill="#FAFAF5"/>
<path id="Vector_147" d="M163.355 106.068C162.998 105.379 162.999 105.274 163.008 104.495C163.326 103.728 163.606 103.62 164.291 103.192C165.615 104.149 167.111 105.187 168.375 106.196C168.933 107.914 169.57 109.631 169.805 111.416C168.264 109.863 165.327 106.77 163.355 106.068Z" fill="#FAFAF5"/>
<path id="Vector_148" d="M118.49 97.5996C119.067 97.8644 120.404 99.1279 121.189 99.5481C123.464 100.766 125.174 99.2529 127.758 99.1609L127.926 99.4049L127.353 99.7389C125.767 100.576 122.666 102.197 120.863 102.169C118.082 102.124 118.395 99.5539 118.49 97.5996Z" fill="#FAFAF5"/>
<path id="Vector_149" d="M122.681 80.8975C125.048 82.6077 119.092 88.1932 117.653 89.1042C117.124 88.872 117.319 89.0577 117.074 88.506C117.561 86.6455 121.318 82.4095 122.681 80.8975Z" fill="#FAFAF5"/>
<path id="Vector_150" d="M31.6835 15.1992C34.275 15.9997 35.4085 18.0655 33.358 20.2845C30.6025 19.6295 28.539 17.248 31.6835 15.1992Z" fill="#FAFAF5"/>
<path id="Vector_151" d="M33.7933 9.97072C34.4253 9.95922 34.735 9.99822 35.3628 10.0842C37.0945 11.1955 37.7683 12.78 36.629 14.6095C33.7343 14.3905 31.5883 12.824 33.7933 9.97072Z" fill="#FAFAF5"/>
<path id="Vector_152" d="M76.3375 50.4502C79.6327 50.5352 80.026 52.3709 78.4832 54.9384C74.868 55.3587 74.6085 52.8359 76.3375 50.4502Z" fill="#FAFAF5"/>
<path id="Vector_153" d="M89.432 106.551C89.799 106.449 89.769 106.52 90.2005 106.665C91.3102 108.693 89.7305 110.646 87.2292 110.381C86.2812 109.769 85.3565 109.425 85.5087 108.226C86.2605 107.565 88.225 107.072 89.432 106.551Z" fill="#FAFAF5"/>
<path id="Vector_154" d="M134.017 96.0374C133.898 96.8834 133.712 97.2711 133.053 97.7456L132.665 97.5811C131.74 96.3864 131.037 93.1689 132.042 91.8604C132.898 91.9264 132.627 91.8833 133.378 92.5091L134.184 92.6431C134.399 93.5976 134.911 94.7939 135.553 95.5211C135.053 95.6754 134.492 95.8301 134.017 96.0374Z" fill="#FAFAF5"/>
<path id="Vector_155" d="M133.379 92.5088L134.184 92.6428C134.399 93.5973 134.911 94.7935 135.554 95.5208C135.054 95.675 134.493 95.8298 134.018 96.037C133.517 95.2928 133.464 93.4658 133.379 92.5088Z" fill="#27301C"/>
<path id="Vector_156" d="M81.7213 48.7471C84.9415 48.8253 86.4723 50.0736 83.938 52.7911C81.0383 53.0656 79.7193 50.7018 81.7213 48.7471Z" fill="#FAFAF5"/>
<path id="Vector_157" d="M113.59 143.813C113.145 145.432 112.679 147.586 111.549 148.858C110.764 149.742 109.368 149.869 108.518 149.002C108.826 147.909 111.91 146.086 112.296 145.071C112.753 143.868 112.161 142.269 113.256 141.076L113.883 141.252C113.798 142.022 113.714 143.073 113.59 143.813Z" fill="#FAFAF5"/>
<path id="Vector_158" d="M71.9521 89.29C73.7574 89.3383 76.5866 89.1 77.9196 90.6188C79.1964 92.0738 77.8481 94.2068 75.8886 94.1088L75.4531 93.7875C75.4496 92.3478 76.1201 92.2065 75.7751 91.1495C74.7861 90.3078 72.7854 89.7595 71.5254 89.54L71.9521 89.29Z" fill="#FAFAF5"/>
<path id="Vector_159" d="M17.2545 20.5039C17.889 20.4484 18.3605 20.4121 19.003 20.4111L19.2583 20.8081C18.8518 21.5681 19.2538 22.9371 19.4013 23.8536C18.5208 23.2561 17.9955 23.5476 16.7408 23.6686C15.078 23.3489 14.3695 22.4001 15.222 20.8409C16.133 20.2869 16.0105 20.4734 17.2545 20.5039Z" fill="#FAFAF5"/>
<path id="Vector_160" d="M17.254 20.5039C17.8885 20.4484 18.36 20.4121 19.0025 20.4111L19.2577 20.8081C18.8512 21.5681 19.2532 22.9371 19.4007 23.8536C18.5202 23.2561 17.995 23.5476 16.7402 23.6686C17.843 22.5639 17.962 21.8094 17.254 20.5039Z" fill="#27301C"/>
<path id="Vector_161" d="M72.4866 49.1396C75.8628 49.2321 74.3421 52.3906 73.4168 54.1904C72.9756 54.1191 72.6011 54.0014 72.1738 53.8792C70.5371 52.2527 71.1393 50.6474 72.4866 49.1396Z" fill="#FAFAF5"/>
<path id="Vector_162" d="M39.0136 9.9995C42.1411 9.87175 43.4328 11.2202 41.7236 14.0765C39.1301 14.5662 38.5018 11.9997 39.0136 9.9995Z" fill="#FAFAF5"/>
<path id="Vector_163" d="M9.41861 42.1953C11.8419 42.3988 12.9036 44.2671 11.1791 46.1711C8.30636 45.9343 6.73561 44.4363 9.41861 42.1953Z" fill="#FAFAF5"/>
<path id="Vector_164" d="M49.7775 162.738L49.2517 163.399C48.3487 163.926 45.404 163.617 44.6327 162.667C44.4137 161.721 44.3587 162.049 44.675 161.3C45.8672 160.254 47.4565 160.368 48.7032 161.225L49.7775 162.738Z" fill="#FAFAF5"/>
<path id="Vector_165" d="M125.522 69.6543C126.741 70.9408 126.652 76.4748 125.54 77.7466C123.119 75.8561 124.669 72.1205 125.522 69.6543Z" fill="#FAFAF5"/>
<path id="Vector_166" d="M9.21579 35.3477C11.8508 35.5949 12.5603 37.7454 11.571 39.9319C10.4965 39.9547 9.95653 39.9369 9.17303 39.1569C8.44653 37.8104 8.81329 36.7862 9.21579 35.3477Z" fill="#FAFAF5"/>
<path id="Vector_167" d="M115.76 133.879C118.207 134.639 121.323 134.488 121.538 137.434C117.98 138.219 117.483 136.652 115.76 133.879Z" fill="#FAFAF5"/>
<path id="Vector_168" d="M72.627 55.4329C75.8693 55.4086 75.9497 57.2081 74.8017 59.6529C72.6062 59.3406 71.0768 57.5444 72.627 55.4329Z" fill="#FAFAF5"/>
<path id="Vector_169" d="M25.3236 166.078C27.1031 167.221 26.7146 170.154 27.3669 172.851L27.0316 173.388C24.2704 171.004 24.3171 169.207 25.3236 166.078Z" fill="#FAFAF5"/>
<path id="Vector_170" d="M105.377 7.6543C108.099 7.68905 108.746 9.6583 107.655 11.8533C104.496 11.493 104.276 10.4753 105.377 7.6543Z" fill="#FAFAF5"/>
<path id="Vector_171" d="M22.8957 12.7686C24.6094 12.8748 25.6874 13.0141 26.2304 14.8321C25.9257 15.9723 26.1614 15.6351 25.3582 16.4653C23.1317 16.3231 21.4009 14.9603 22.8957 12.7686Z" fill="#FAFAF5"/>
<path id="Vector_172" d="M146.516 146.179C146.653 146.206 146.971 146.359 147.116 146.423L147.154 147.041C146.262 148.81 145.05 149.81 143.433 150.841C142.699 150.18 142.264 149.946 142.408 148.991C143.043 148.153 145.358 146.948 146.516 146.179Z" fill="#27301C"/>
<path id="Vector_173" d="M80.9624 54.9887C81.7954 54.9495 82.0014 54.916 82.8236 55.1987C84.1906 56.5735 83.4034 57.4802 82.2721 58.671C81.5896 58.828 81.4019 58.7397 80.7161 58.5582C79.4614 57.3167 80.1659 56.3007 80.9624 54.9887Z" fill="#FAFAF5"/>
<path id="Vector_174" d="M8.6097 24.6877C9.5407 24.2989 10.6104 24.7369 11.0014 25.6667C11.3927 26.5964 10.9577 27.6674 10.0289 28.0612C9.0967 28.4562 8.0207 28.0192 7.62795 27.0859C7.23545 26.1527 7.67545 25.0777 8.6097 24.6877Z" fill="#FAFAF5"/>
<path id="Vector_175" d="M104.902 13.4891C105.797 13.0379 106.889 13.3914 107.35 14.2814C107.811 15.1716 107.47 16.2671 106.584 16.7376C106.003 17.0469 105.301 17.0196 104.745 16.6669C104.189 16.3139 103.866 15.6896 103.899 15.0321C103.931 14.3749 104.314 13.7854 104.902 13.4891Z" fill="#FAFAF5"/>
<path id="Vector_176" d="M177.623 126.252C178.454 126.236 178.656 126.292 179.296 126.777C179.883 128.482 178.703 129.108 177.383 129.824C176.945 129.763 176.358 129.251 175.972 128.967C175.104 127.19 176.231 126.907 177.623 126.252Z" fill="#FAFAF5"/>
<path id="Vector_177" d="M7.60225 29.9189C10.5942 29.9634 11.0467 31.2254 10.1812 33.8372L9.94 33.8027C7.0785 33.3784 7.14175 32.4274 7.60225 29.9189Z" fill="#FAFAF5"/>
<path id="Vector_178" d="M12.5069 25.008C15.2589 24.9415 16.4069 25.0187 16.1539 28.1412C15.7592 28.153 15.3644 28.156 14.9697 28.1505C14.0097 28.133 13.5374 28.072 12.8534 27.3597C12.3997 26.5022 12.4854 25.979 12.5069 25.008Z" fill="#FAFAF5"/>
<path id="Vector_179" d="M81.9779 87.7715C82.5024 87.7745 82.9009 87.903 83.4054 88.0287C83.9364 88.5807 83.8184 88.2965 83.8216 89.104C83.4229 90.0547 82.9564 90.3657 82.1786 91.042C80.5526 90.9307 79.7096 90.3615 80.1074 88.7117C80.9179 87.8777 80.7251 88.1167 81.9779 87.7715Z" fill="#FAFAF5"/>
<path id="Vector_180" d="M137.96 142.002C138.726 141.972 139.138 141.885 139.794 142.307C140.47 143.737 138.442 144.459 137.412 144.917C136.564 145.022 135.816 145.281 135.246 144.609C135.556 143.571 137.072 142.631 137.96 142.002Z" fill="#FAFAF5"/>
<path id="Vector_181" d="M75.0281 46.1162C75.3421 46.1447 75.6551 46.1802 75.9673 46.222C77.0393 46.37 77.6718 46.5795 78.3266 47.453C78.5543 48.487 78.5601 48.0525 78.2263 49.1242C76.8826 49.4692 76.3838 49.785 75.2573 48.899C74.8203 48.0482 74.9731 47.0832 75.0281 46.1162Z" fill="#FAFAF5"/>
<path id="Vector_182" d="M13.1167 29.4082C15.6242 29.4005 15.9959 31.3222 14.7209 33.2052C13.3194 32.9177 12.6072 32.6665 12.1484 31.2707C12.2392 30.341 12.5147 30.124 13.1167 29.4082Z" fill="#FAFAF5"/>
<path id="Vector_183" d="M26.3152 17.3867C28.6214 17.574 29.8244 19.1835 28.2389 21.2577C27.8527 21.2542 27.4687 21.2022 27.0954 21.1032C25.3047 20.6147 25.8709 18.6077 26.3152 17.3867Z" fill="#FAFAF5"/>
<path id="Vector_184" d="M85.053 94.2425C85.505 93.8085 86.158 93.6563 86.755 93.8458C87.3523 94.0353 87.798 94.5358 87.9173 95.151C88.0365 95.766 87.81 96.397 87.3268 96.7958C86.6173 97.381 85.572 97.3008 84.9605 96.614C84.3488 95.927 84.3898 94.8795 85.053 94.2425Z" fill="#FAFAF5"/>
<path id="Vector_185" d="M111.19 8.62891C111.8 8.66741 111.815 8.69365 112.297 9.10715C113.028 10.4344 112.81 11.7914 111.643 12.7489C110.508 12.0959 109.941 11.8704 109.6 10.6637C109.797 9.7579 110.495 9.26916 111.19 8.62891Z" fill="#FAFAF5"/>
<path id="Vector_186" d="M178.354 122.217C178.56 122.265 178.634 122.355 178.827 122.487C178.485 125.253 176.367 125.532 173.995 125.536C173.713 125.426 173.709 125.355 173.479 125.107C173.768 124.069 176.636 123.414 178.354 122.217Z" fill="#FAFAF5"/>
<path id="Vector_187" d="M81.11 93.3271C83.151 94.0289 83.3375 96.4749 81.1395 97.3326C79.9875 96.7414 79.7362 96.7034 79.6367 95.3814C80.0237 94.3381 80.3115 94.1184 81.11 93.3271Z" fill="#FAFAF5"/>
<path id="Vector_188" d="M88.5958 82.9619C89.911 83.2079 90.4588 83.6102 90.9948 84.8732L90.7985 85.3432C89.776 85.6599 89.6915 85.3912 88.447 84.9767C87.3875 85.0477 86.8855 85.4249 86.0318 85.0732L85.998 84.6974L86.2625 85.1192L86.1583 84.5429C87.075 83.8539 87.5945 83.5282 88.5958 82.9619Z" fill="#FAFAF5"/>
<path id="Vector_189" d="M116.965 109.946C117.266 110.166 118.638 111.128 118.757 111.362C117.943 111.977 118.129 111.659 117.952 112.525L117.652 113.14C117.002 113.541 116.898 113.633 116.152 113.539C115.39 112.983 115.6 113.281 115.311 112.439C115.46 111.515 115.522 111.412 116.029 110.645L116.589 110.597L116.965 109.946Z" fill="#FAFAF5"/>
<path id="Vector_190" d="M116.965 109.946C117.266 110.166 118.638 111.128 118.757 111.362C117.943 111.977 118.129 111.659 117.952 112.525C117.25 111.542 117.074 111.211 116.029 110.645L116.589 110.597L116.965 109.946Z" fill="#27301C"/>
<path id="Vector_191" d="M25.8252 108.22L26.3125 108.875C23.5127 110.653 22.2962 114.295 20.4292 114.598L20.482 114.74L20.418 114.482C21.6432 111.922 23.601 109.922 25.8252 108.22Z" fill="#27301C"/>
<path id="Vector_192" d="M74.0022 42.3431C72.6112 40.9111 71.2267 39.4333 69.7832 38.0596L69.8457 37.7678C71.9775 37.5758 72.8657 39.4116 73.964 40.8326C74.6005 41.6556 75.1317 41.5206 76.099 41.6291C75.544 41.7911 74.451 42.0623 74.0022 42.3431Z" fill="#27301C"/>
<path id="Vector_193" d="M86.7793 111.364C87.7658 111.526 89.352 111.783 90.0768 112.422C90.5405 113.384 90.4101 113.089 90.3038 114.253C88.1428 114.873 87.0423 113.298 86.7793 111.364Z" fill="#FAFAF5"/>
<path id="Vector_194" d="M8.62339 19.2425C7.27239 18.8352 6.08939 19.2817 5.11914 18.6447C5.55164 16.5252 8.06864 16.66 9.30964 18.6635L8.62339 19.2425Z" fill="#FAFAF5"/>
<path id="Vector_195" d="M28.686 10.417L29.5945 10.525C30.183 11.0215 30.221 11.1077 30.4512 11.8455C30.3087 12.9607 30.5183 12.582 29.6943 13.2767C28.633 13.0015 27.8613 12.9435 27.4062 11.8812C27.8063 10.9122 27.7702 11.1472 28.686 10.417Z" fill="#FAFAF5"/>
<path id="Vector_196" d="M19.8661 16.5977C21.7136 16.7787 22.7081 17.0084 23.0299 19.0012C22.0051 19.0364 20.9929 19.0949 20.1799 18.4584C19.7164 17.7622 19.8096 17.4142 19.8661 16.5977Z" fill="#FAFAF5"/>
<path id="Vector_197" d="M146.478 101.406C147.559 101.322 149.337 101.057 150.24 101.602C148.824 102.509 147.76 102.507 146.09 102.498C146.639 102.338 146.991 102.25 147.513 102.001L146.478 101.406Z" fill="#27301C"/>
<path id="Vector_198" d="M152.815 150.602C152.778 149.007 151.861 148.053 152.054 147.143C153.005 147.654 153.099 147.95 153.695 148.845C153.15 149.564 153.004 149.706 152.815 150.602Z" fill="#27301C"/>
<path id="Vector_199" d="M114.158 173.886C113.115 173.574 112.525 173.462 111.658 172.812L111.729 172.55C112.732 172.377 113.791 172.815 114.78 173.126L114.158 173.886Z" fill="#27301C"/>
<path id="Vector_200" d="M21.9469 178.135C23.1151 178.821 24.2936 179.844 25.2531 180.807C24.0594 180.227 22.7616 179.656 21.7031 178.869L21.9469 178.135Z" fill="#27301C"/>
<path id="Vector_201" d="M9.3093 18.6631C9.62155 19.5048 9.97605 20.1703 9.6213 20.9886C9.11655 20.6161 8.83805 19.8673 8.62305 19.2421L9.3093 18.6631Z" fill="#27301C"/>
<path id="Vector_202" d="M135.35 141.641C136.471 141.024 137.775 140.248 138.961 139.822C138.146 140.602 137.249 141.55 136.278 142.088L135.35 141.641Z" fill="#27301C"/>
</g>
<defs>
<clipPath id="clip0_0_11">
<rect width="186" height="188" fill="white"/>
</clipPath>
</defs>
</svg>
